<?xml version="1.0" standalone="no"?>
<!DOCTYPE svg PUBLIC "-//W3C//DTD SVG 1.1//EN" "http://www.w3.org/Graphics/SVG/1.1/DTD/svg11.dtd" >
<svg xmlns="http://www.w3.org/2000/svg" xmlns:xlink="http://www.w3.org/1999/xlink" version="1.1">
<metadata>
Created by FontForge 20190801 at Sun Nov 10 19:49:14 2002
 By Jimmy Wärting
\251 Dutch Design: Albert-Jan Pool, 1995. Published by FontShop International FontFont release 15
</metadata>
<defs>
<font id="DIN-Bold" horiz-adv-x="543" >
  <font-face 
    font-family="DIN"
    font-weight="700"
    font-stretch="normal"
    units-per-em="1000"
    panose-1="2 0 8 3 4 0 0 2 0 4"
    ascent="800"
    descent="-200"
    x-height="521"
    cap-height="712"
    bbox="-115 -206 1158 1015"
    underline-thickness="87"
    underline-position="-177"
    unicode-range="U+0005-2122"
  />
<missing-glyph horiz-adv-x="1000" 
 />
    <glyph glyph-name=".notdef" horiz-adv-x="1000" 
 />
    <glyph glyph-name=".null" horiz-adv-x="0" 
 />
    <glyph glyph-name="nonmarkingreturn" horiz-adv-x="232" 
 />
    <glyph glyph-name="breve" horiz-adv-x="500" 
d="M414 742h-87q-4 -32 -25.5 -46t-50.5 -14t-51 14t-26 46h-88q2 -41 16 -69.5t36.5 -46.5t51.5 -26.5t61 -8.5t61 8.5t51 26.5t35.5 46.5t15.5 69.5z" />
    <glyph glyph-name="dotaccent" horiz-adv-x="500" 
d="M317 608v106h-134v-106h134z" />
    <glyph glyph-name="ring" horiz-adv-x="500" 
d="M381 715q0 27 -10.5 51t-28 42t-41.5 28t-51 10t-51 -10.5t-41.5 -28t-28 -41.5t-10.5 -51t10.5 -51t28 -41.5t41.5 -28t51 -10.5t51 10.5t41.5 28t28 41.5t10.5 51zM308 715q0 -24 -17 -41.5t-41 -17.5t-41 17.5t-17 41.5t17 41t41 17t41 -17t17 -41z" />
    <glyph glyph-name="hungarumlaut" unicode="&#xa;" horiz-adv-x="500" 
d="M465 774h-138l-63 -170h86zM258 774h-138l-63 -170h87z" />
    <glyph glyph-name="ogonek" horiz-adv-x="500" 
d="M334 -206l-68 146h-97l44 -146h121z" />
    <glyph glyph-name="caron" horiz-adv-x="500" 
d="M434 773h-101l-83 -90l-83 90h-101l132 -169h104z" />
    <glyph glyph-name="dotlessi" unicode="&#xd;" horiz-adv-x="275" 
d="M203 0v521h-130v-521h130z" />
    <glyph glyph-name="fraction" horiz-adv-x="208" 
d="M323 712h-101l-337 -712h101z" />
    <glyph glyph-name="fi" horiz-adv-x="602" 
d="M532 610v106h-134v-106h134zM530 0v506h-130v-506h130zM311 407v99h-96v57q0 47 46 47h50v110h-74q-40 0 -68.5 -13t-47 -34t-27.5 -47.5t-9 -54.5v-65h-54v-99h54v-407h130v407h96z" />
    <glyph glyph-name="fl" horiz-adv-x="648" 
d="M624 0v110h-50q-25 0 -35.5 12t-10.5 35v555h-130v-563q0 -28 8.5 -54.5t27 -47.5t47.5 -34t69 -13h74zM311 407v99h-96v57q0 47 46 47h50v110h-74q-40 0 -68.5 -13t-47 -34t-27.5 -47.5t-9 -54.5v-65h-54v-99h54v-407h130v407h96z" />
    <glyph glyph-name="Lslash" horiz-adv-x="593" 
d="M563 0v124h-323v208l128 81v115l-128 -81v265h-139v-352l-64 -41v-116l64 41v-244h462z" />
    <glyph glyph-name="lslash" horiz-adv-x="336" 
d="M309 0v110h-50q-25 0 -35 12t-10 35v223l60 38v109l-60 -37v222h-130v-300l-54 -34v-109l54 33v-153q0 -28 8.5 -54.5t27 -47.5t47 -34t68.5 -13h74z" />
    <glyph glyph-name="Zcaron" horiz-adv-x="548" 
d="M508 0v124h-305l305 478v110h-455v-124h291l-304 -476v-112h468zM461 950h-101l-83 -90l-83 90h-101l132 -169h104z" />
    <glyph glyph-name="zcaron" horiz-adv-x="478" 
d="M434 0v117h-234l234 305v99h-384v-117h218l-231 -305v-99h397zM427 773h-101l-83 -90l-83 90h-101l132 -169h104z" />
    <glyph glyph-name="space" unicode=" " horiz-adv-x="232" 
 />
    <glyph glyph-name="space" unicode="&#xa0;" horiz-adv-x="232" 
 />
    <glyph glyph-name="exclam" unicode="!" horiz-adv-x="347" 
d="M272 712h-160l31 -489h98zM261 0v133h-138v-133h138z" />
    <glyph glyph-name="quotedbl" unicode="&#x22;" horiz-adv-x="464" 
d="M395 501v211h-121v-211h121zM190 501v211h-122v-211h122z" />
    <glyph glyph-name="numbersign" unicode="#" horiz-adv-x="691" 
d="M643 420v121h-69l27 177h-136l-28 -177h-116l28 177h-137l-28 -177h-89v-121h70l-16 -108h-89v-122h69l-30 -190h137l30 190h116l-31 -190h137l30 190h89v122h-69l16 108h89zM417 420l-16 -108h-116l17 108h115z" />
    <glyph glyph-name="dollar" unicode="$" horiz-adv-x="619" 
d="M571 210q0 48 -13 85.5t-42 64.5q-23 21 -55 34.5t-81 21.5l-38 6v174q31 -2 64.5 -13t58.5 -35l88 87q-41 39 -88.5 58.5t-108.5 23.5v89h-101v-90q-98 -11 -153 -69t-55 -145q0 -88 51 -139q23 -23 58 -38.5t80 -21.5l32 -4v-181q-45 2 -86 15t-73 45l-90 -90
q49 -50 106.5 -71t129.5 -23v-108h101v112q47 6 86.5 22.5t68 43.5t44.5 63.5t16 82.5zM268 428q-43 6 -66 28q-11 11 -16 24t-5 27q0 33 21.5 57.5t65.5 30.5v-167zM435 206q0 -37 -24 -59t-69 -27v172q20 -3 38 -7.5t33 -18.5q22 -21 22 -60z" />
    <glyph glyph-name="percent" unicode="%" horiz-adv-x="848" 
d="M796 131v99q0 34 -11.5 59.5t-31.5 42.5t-46.5 26t-55.5 9q-30 0 -56 -9t-46 -26t-31.5 -42.5t-11.5 -59.5v-99q0 -34 11.5 -59.5t31.5 -43t46 -26t56 -8.5q29 0 55.5 8.5t46.5 26t31.5 43t11.5 59.5zM644 712h-102l-337 -712h102zM342 482v99q0 34 -11.5 59.5
t-31.5 42.5t-46.5 26t-55.5 9q-30 0 -56 -9t-46 -26t-31.5 -42.5t-11.5 -59.5v-99q0 -34 11.5 -59.5t31.5 -43t46 -26t56 -8.5q29 0 55.5 8.5t46.5 26t31.5 43t11.5 59.5zM702 135q0 -29 -13.5 -43t-37.5 -14q-51 0 -51 57v91q0 57 51 57q24 0 37.5 -14t13.5 -43v-91z
M248 486q0 -29 -13.5 -43t-37.5 -14t-37.5 14t-13.5 43v91q0 57 51 57q24 0 37.5 -14t13.5 -43v-91z" />
    <glyph glyph-name="ampersand" unicode="&#x26;" horiz-adv-x="721" 
d="M696 0l-128 151q38 42 55 97t21 124h-123q-2 -38 -10.5 -70t-25.5 -55l-120 142q9 6 21.5 15t20.5 15t9 7q33 24 53 53t20 71q0 36 -12.5 67t-36.5 53.5t-57.5 35t-75.5 12.5q-45 0 -80 -12.5t-59.5 -34.5t-37.5 -52.5t-13 -66.5q0 -26 7 -48t17.5 -40.5t23 -34.5
t23.5 -28q-23 -15 -46 -34t-41 -42.5t-29.5 -52t-11.5 -62.5q0 -101 58.5 -158.5t176.5 -57.5q38 0 67 7t51 17.5t38 22t28 21.5l52 -62h165zM366 549q0 -19 -12 -33.5t-29 -26.5l-11 -7.5t-19 -12.5q-19 22 -33 41t-14 39q0 25 15 41.5t44 16.5q28 0 43.5 -16.5t15.5 -41.5
zM400 154q-25 -22 -49.5 -32t-56.5 -10q-23 0 -42.5 7.5t-34 20.5t-23 31.5t-8.5 40.5q0 38 20 62t52 47z" />
    <glyph glyph-name="quotesingle" unicode="'" horiz-adv-x="259" 
d="M191 501v211h-123v-211h123z" />
    <glyph glyph-name="parenleft" unicode="(" horiz-adv-x="336" 
d="M281 -7q-18 18 -30.5 31.5t-25.5 35.5q-15 27 -15 84v424q0 57 15 84q13 22 25.5 35.5t30.5 31.5l-87 87q-25 -25 -48 -49.5t-40 -53.5q-17 -30 -21.5 -63t-4.5 -66v-436q0 -33 4.5 -66t21.5 -63q17 -29 40 -53.5t48 -49.5z" />
    <glyph glyph-name="parenright" unicode=")" horiz-adv-x="336" 
d="M256 138v436q0 33 -4.5 66t-21.5 63q-17 29 -40 53.5t-48 49.5l-88 -88q18 -18 30.5 -31t25.5 -35q15 -27 15 -84v-424q0 -57 -15 -84q-13 -22 -25.5 -35t-30.5 -31l88 -88q25 25 48 49.5t40 53.5q17 30 21.5 63t4.5 66z" />
    <glyph glyph-name="asterisk" unicode="*" horiz-adv-x="494" 
d="M440 460l-111 58l111 58l-46 80l-105 -67l4 125h-92l5 -125l-106 67l-45 -80l110 -58l-110 -58l45 -79l106 66l-5 -125h92l-4 125l105 -66z" />
    <glyph glyph-name="plus" unicode="+" 
d="M493 216v122h-160v160h-122v-160h-161v-122h161v-160h122v160h160z" />
    <glyph glyph-name="comma" unicode="," horiz-adv-x="279" 
d="M211 -55v197h-143v-307z" />
    <glyph glyph-name="hyphen" unicode="-" horiz-adv-x="426" 
d="M367 225v121h-308v-121h308z" />
    <glyph glyph-name="period" unicode="." horiz-adv-x="285" 
d="M217 0v148h-149v-148h149z" />
    <glyph glyph-name="slash" unicode="/" horiz-adv-x="403" 
d="M407 786h-122l-285 -860h122z" />
    <glyph glyph-name="zero" unicode="0" 
d="M488 206v300q0 51 -17.5 90.5t-47 66.5t-69 41t-82.5 14q-44 0 -83 -14t-69 -41t-47.5 -66.5t-17.5 -90.5v-300q0 -51 17.5 -90.5t47.5 -66.5t69 -41t83 -14q43 0 82.5 14t69 41t47 66.5t17.5 90.5zM358 207q0 -45 -24 -70.5t-62 -25.5t-62.5 25.5t-24.5 70.5v297
q0 45 24.5 71t62.5 26t62 -26t24 -71v-297z" />
    <glyph glyph-name="one" unicode="1" 
d="M378 0v712h-130l-145 -126v-140l145 126v-572h130z" />
    <glyph glyph-name="two" unicode="2" 
d="M492 0v117h-275l199 231q18 21 32.5 39.5t24 37.5t14.5 39.5t5 46.5q0 48 -16 86.5t-44.5 65t-68.5 41t-87 14.5q-46 0 -85.5 -14t-69 -41t-46 -65.5t-16.5 -87.5h130q0 26 7.5 43.5t20 28t28 15t31.5 4.5q42 0 64 -24.5t22 -64.5q0 -25 -8.5 -44t-28.5 -42l-266 -309
v-117h433z" />
    <glyph glyph-name="three" unicode="3" 
d="M495 206q0 65 -27 103.5t-65 58.5q35 19 58.5 53.5t23.5 92.5q0 45 -16 82.5t-45 64.5t-69 42t-87 15q-45 0 -84.5 -14t-68.5 -40t-46.5 -63.5t-18.5 -85.5h130q2 41 26.5 63.5t61.5 22.5q35 0 61 -23t26 -68q0 -38 -21 -63.5t-69 -25.5h-19v-113h19q48 0 74 -26.5
t26 -71.5q0 -48 -27 -73.5t-69 -25.5q-19 0 -36.5 5.5t-30.5 17t-21 29t-9 41.5h-130q1 -56 20 -95.5t50.5 -65t72 -37.5t84.5 -12q46 0 87 13t72 39.5t49 66.5t18 93z" />
    <glyph glyph-name="four" unicode="4" 
d="M512 101v123h-65v133h-125v-133h-149l244 488h-142l-244 -488v-123h291v-101h125v101h65z" />
    <glyph glyph-name="five" unicode="5" 
d="M494 240q0 51 -11 99.5t-53 90.5q-22 22 -55 35t-78 13q-36 0 -64.5 -11t-42.5 -25v153h288v117h-406v-402h119q7 21 26.5 39.5t59.5 18.5q48 0 67.5 -33t19.5 -95q0 -34 -5.5 -61.5t-22.5 -44.5q-23 -23 -62 -23q-41 0 -61.5 23t-25.5 65h-130q3 -39 14 -77t44 -71
q23 -23 63 -40t96 -17t94.5 17t62.5 41q39 39 51 83.5t12 104.5z" />
    <glyph glyph-name="six" unicode="6" 
d="M492 216q0 49 -15.5 88.5t-42 66.5t-60 41.5t-69.5 14.5q-13 0 -26.5 -2t-26.5 -7l148 294h-142l-150 -308q-24 -49 -42 -95t-18 -95q0 -53 17 -94t47 -69t70.5 -42.5t87.5 -14.5t87.5 15t70.5 43.5t47 69.5t17 94zM362 215q0 -50 -26 -77t-66 -27t-66 27t-26 77t26 77
t66 27q42 0 67 -28t25 -76z" />
    <glyph glyph-name="seven" unicode="7" 
d="M503 595v117h-453v-229h124v112h188l-231 -595h141z" />
    <glyph glyph-name="eight" unicode="8" 
d="M500 207q0 33 -8.5 58t-22 44.5t-29 33.5t-30.5 24q13 9 27.5 23t26 32t19 41t7.5 52q0 47 -17.5 84.5t-47 64t-69 40.5t-84.5 14t-84.5 -14t-69.5 -40.5t-47.5 -64t-17.5 -84.5q0 -29 7.5 -52t19 -41t25.5 -32t28 -23q-15 -10 -30.5 -24t-28.5 -33.5t-21.5 -44.5
t-8.5 -58q0 -52 18 -91.5t49 -66.5t72.5 -41t88.5 -14t88.5 14t72.5 41t49 66.5t18 91.5zM360 511q0 -39 -25 -64.5t-63 -25.5t-63.5 25.5t-25.5 64.5q0 38 25.5 64t63.5 26t63 -26t25 -64zM370 209q0 -42 -28 -70t-70 -28t-70 28t-28 70t28 70.5t70 28.5t70 -28.5t28 -70.5
z" />
    <glyph glyph-name="nine" unicode="9" 
d="M495 498q0 53 -17 94t-47 69t-70.5 42.5t-87.5 14.5t-87.5 -15t-70.5 -43.5t-47 -70t-17 -93.5q0 -50 16 -89t42 -66t60 -41.5t70 -14.5q13 0 26.5 2t26.5 7l-148 -294h141l151 308q24 49 41.5 95t17.5 95zM365 497q0 -50 -26 -77t-66 -27q-42 0 -67 28t-25 76
q0 50 26 77t66 27t66 -27t26 -77z" />
    <glyph glyph-name="colon" unicode=":" horiz-adv-x="309" 
d="M241 271v148h-148v-148h148zM241 0v148h-148v-148h148z" />
    <glyph glyph-name="semicolon" unicode=";" horiz-adv-x="309" 
d="M241 271v148h-148v-148h148zM238 -55v197h-142v-307z" />
    <glyph glyph-name="less" unicode="&#x3c;" horiz-adv-x="1027" 
d="M976 224v123h-703l326 323h-164l-385 -385l385 -385h164l-326 324h703z" />
    <glyph glyph-name="equal" unicode="=" 
d="M493 333v122h-443v-122h443zM493 116v122h-443v-122h443z" />
    <glyph glyph-name="greater" unicode="&#x3e;" horiz-adv-x="1027" 
d="M977 285l-385 385h-164l326 -323h-704v-123h704l-326 -324h164z" />
    <glyph glyph-name="question" unicode="?" horiz-adv-x="523" 
d="M487 518q0 48 -17 85t-46 62.5t-67.5 39t-80.5 13.5q-44 0 -82 -14t-66.5 -39.5t-45 -63t-16.5 -83.5h130q0 35 20 59t60 24q38 0 59.5 -23.5t21.5 -58.5q0 -17 -8.5 -34t-20.5 -33l-74 -95q-20 -26 -29 -49t-9 -55v-30h130v21q0 13 5 27t13 24l74 98q21 28 35 57.5
t14 67.5zM350 0v133h-138v-133h138z" />
    <glyph glyph-name="at" unicode="@" horiz-adv-x="758" 
d="M700 -3v469q0 62 -13 108t-48 81t-82 48t-106 13h-144q-61 0 -107 -13t-81 -48t-48.5 -81.5t-13.5 -107.5v-299q0 -34 4.5 -59.5t14 -46.5t24.5 -39t36 -37l90 90q-12 11 -20.5 20.5t-14 21t-7.5 25t-2 32.5v289q0 32 6.5 56t28.5 46q21 21 45.5 28t54.5 7h124
q30 0 55 -7.5t45 -27.5t27.5 -45t7.5 -57v-45q-23 25 -51.5 37t-66.5 12q-39 0 -71.5 -13.5t-54.5 -37.5q-30 -33 -38 -75.5t-8 -109.5q0 -34 1.5 -61t6.5 -49.5t14.5 -41.5t24.5 -35q47 -50 126 -50q42 0 69 13t51 39v-46zM576 231q0 -60 -17.5 -94.5t-65.5 -34.5t-65 34.5
t-17 94.5t17 94t65 34t65.5 -34t17.5 -94z" />
    <glyph glyph-name="A" unicode="A" horiz-adv-x="638" 
d="M633 0l-260 712h-109l-259 -712h145l43 126h253l42 -126h145zM409 243h-177l90 259z" />
    <glyph glyph-name="B" unicode="B" horiz-adv-x="658" 
d="M599 205q0 36 -9.5 62.5t-23.5 45.5t-31.5 31.5t-33.5 20.5q13 6 28.5 19t29 31.5t22 42.5t8.5 54q0 92 -57.5 146t-162.5 54h-286v-712h298q48 0 88 13.5t69 39.5t45 64t16 88zM450 506q0 -37 -23.5 -59.5t-68.5 -22.5h-136v164h136q45 0 68.5 -22.5t23.5 -59.5z
M460 212q0 -36 -22.5 -62t-70.5 -26h-145v175h145q48 0 70.5 -25.5t22.5 -61.5z" />
    <glyph glyph-name="C" unicode="C" horiz-adv-x="620" 
d="M583 219h-141q-11 -43 -39 -72t-81 -29q-29 0 -51.5 10t-37.5 27q-10 11 -17 24.5t-11 35.5t-5.5 56t-1.5 85t1.5 85t5.5 56t11 35.5t17 24.5q15 17 37.5 27t51.5 10q53 0 81 -29t39 -72h141q-9 56 -32.5 98t-58 70.5t-78 42.5t-93.5 14q-59 0 -106.5 -20t-85.5 -58
q-27 -27 -41.5 -57.5t-20.5 -65.5t-7 -75t-1 -86t1 -86t7 -75t20.5 -65.5t41.5 -57.5q38 -38 85.5 -58t106.5 -20q49 0 93 14t78.5 42.5t58 70.5t32.5 98z" />
    <glyph glyph-name="D" unicode="D" horiz-adv-x="659" 
d="M600 359v78q0 39 -6 75t-21 69t-45 63q-35 35 -83.5 51.5t-104.5 16.5h-257v-712h257q56 0 104.5 16.5t83.5 51.5q30 30 45 64t21 71t6 76v80zM461 359q0 -81 -5.5 -124t-24.5 -67q-18 -22 -43 -33t-61 -11h-105v464h105q36 0 61 -11t43 -33q10 -12 16 -27t9 -37t4 -51.5
t1 -69.5z" />
    <glyph glyph-name="E" unicode="E" horiz-adv-x="605" 
d="M552 0v124h-330v173h281v124h-281v167h330v124h-469v-712h469z" />
    <glyph glyph-name="F" unicode="F" horiz-adv-x="590" 
d="M552 588v124h-469v-712h139v289h281v124h-281v175h330z" />
    <glyph glyph-name="G" unicode="G" horiz-adv-x="648" 
d="M590 292v104h-269v-116h131v-27q0 -28 -7.5 -51.5t-24.5 -43.5q-17 -19 -42 -29.5t-57 -10.5q-29 0 -51.5 10t-37.5 27q-10 11 -16.5 24.5t-10.5 35.5t-5.5 56t-1.5 85t1.5 84.5t5.5 55.5t10.5 35.5t16.5 24.5q15 17 37.5 27.5t51.5 10.5q54 0 85 -26.5t43 -77.5h140
q-7 45 -26.5 86t-52.5 72.5t-80 50.5t-109 19q-60 0 -107 -20t-85 -58q-27 -27 -41.5 -57.5t-20.5 -65.5t-7 -75t-1 -86t1 -86t7 -75t20.5 -65.5t41.5 -57.5q38 -38 85.5 -58t106.5 -20q57 0 107.5 18t93.5 63q37 39 52.5 89.5t15.5 127.5z" />
    <glyph glyph-name="H" unicode="H" horiz-adv-x="685" 
d="M602 0v712h-139v-291h-241v291h-139v-712h139v298h241v-298h139z" />
    <glyph glyph-name="I" unicode="I" horiz-adv-x="305" 
d="M222 0v712h-139v-712h139z" />
    <glyph glyph-name="J" unicode="J" horiz-adv-x="511" 
d="M437 234v478h-139v-472q0 -62 -30.5 -92t-81.5 -30q-35 0 -54.5 11.5t-36.5 28.5l-92 -91q40 -40 82.5 -56.5t100.5 -16.5q49 0 94.5 15.5t80.5 45.5t55.5 75t20.5 104z" />
    <glyph glyph-name="K" unicode="K" horiz-adv-x="665" 
d="M659 0l-253 429l236 283h-169l-251 -310v310h-139v-712h139v214l92 110l183 -324h162z" />
    <glyph glyph-name="L" unicode="L" horiz-adv-x="575" 
d="M545 0v124h-323v588h-139v-712h462z" />
    <glyph glyph-name="M" unicode="M" horiz-adv-x="811" 
d="M728 0v712h-137l-185 -385l-186 385h-137v-712h139v415l137 -270h94l136 270v-415h139z" />
    <glyph glyph-name="N" unicode="N" horiz-adv-x="711" 
d="M628 0v712h-139v-436l-282 436h-124v-712h139v437l282 -437h124z" />
    <glyph glyph-name="O" unicode="O" horiz-adv-x="644" 
d="M585 356q0 46 -1 86t-7.5 75t-21 65.5t-41.5 57.5q-38 38 -84.5 58t-107.5 20t-108 -20t-85 -58q-27 -27 -41.5 -57.5t-20.5 -65.5t-7 -75t-1 -86t1 -86t7 -75t20.5 -65.5t41.5 -57.5q38 -38 85 -58t108 -20t107.5 20t84.5 58q27 27 41.5 57.5t21 65.5t7.5 75t1 86z
M446 356q0 -51 -1.5 -84.5t-5.5 -55.5t-11 -35.5t-17 -24.5q-15 -17 -37.5 -27.5t-51.5 -10.5t-52 10.5t-38 27.5q-10 11 -16.5 24.5t-10.5 35.5t-5.5 55.5t-1.5 84.5t1.5 84.5t5.5 55.5t10.5 35.5t16.5 24.5q15 17 38 27.5t52 10.5t51.5 -10.5t37.5 -27.5q10 -11 17 -24.5
t11 -35.5t5.5 -55.5t1.5 -84.5z" />
    <glyph glyph-name="P" unicode="P" horiz-adv-x="628" 
d="M594 490q0 45 -16 85.5t-46.5 71t-74 48t-98.5 17.5h-276v-712h139v268h137q55 0 98.5 17.5t74 48t46.5 71t16 85.5zM455 490q0 -44 -27.5 -70.5t-75.5 -26.5h-130v195h130q48 0 75.5 -27t27.5 -71z" />
    <glyph glyph-name="Q" unicode="Q" horiz-adv-x="643" 
d="M602 43l-61 61q17 25 26 52.5t13 58.5t4.5 66t0.5 75q0 46 -1 86t-7.5 75t-21 65.5t-41.5 57.5q-38 38 -84.5 58t-107.5 20t-108 -20t-85 -58q-27 -27 -41.5 -57.5t-20.5 -65.5t-7 -75t-1 -86t1 -86t7 -75t20.5 -65.5t41.5 -57.5q38 -38 85 -58t108 -20q84 0 144 39
l63 -63zM446 356q0 -54 -2.5 -87.5t-10.5 -56.5l-53 53l-74 -73l62 -61q-19 -13 -46 -13q-29 0 -52 10.5t-38 27.5q-10 11 -16.5 24.5t-10.5 35.5t-5.5 55.5t-1.5 84.5t1.5 84.5t5.5 55.5t10.5 35.5t16.5 24.5q15 17 38 27.5t52 10.5t51.5 -10.5t37.5 -27.5q10 -11 17 -24.5
t11 -35.5t5.5 -55.5t1.5 -84.5z" />
    <glyph glyph-name="R" unicode="R" horiz-adv-x="654" 
d="M622 0l-159 307q26 9 49.5 25.5t41.5 40t28.5 53.5t10.5 68q0 45 -15.5 84.5t-45.5 69t-73 47t-97 17.5h-279v-712h139v284h100l139 -284h161zM454 494q0 -42 -27.5 -68t-73.5 -26h-131v188h131q46 0 73.5 -26t27.5 -68z" />
    <glyph glyph-name="S" unicode="S" horiz-adv-x="591" 
d="M543 210q0 48 -13 86t-42 65q-23 21 -55 34.5t-81 20.5l-84 12q-22 3 -38.5 10.5t-27.5 17.5q-11 11 -16 24t-5 27q0 37 27 63.5t83 26.5q35 0 73.5 -8.5t72.5 -40.5l88 87q-46 45 -101 64t-129 19q-58 0 -104 -16t-78 -44.5t-49 -68t-17 -87.5q0 -89 51 -140
q47 -46 138 -59l86 -12q25 -4 38.5 -9.5t24.5 -15.5q22 -21 22 -60q0 -43 -32 -65.5t-94 -22.5q-50 0 -94 13t-78 47l-90 -90q52 -53 115.5 -73.5t144.5 -20.5q56 0 104 14.5t83.5 42t56 67.5t20.5 92z" />
    <glyph glyph-name="T" unicode="T" horiz-adv-x="571" 
d="M541 588v124h-511v-124h186v-588h139v588h186z" />
    <glyph glyph-name="U" unicode="U" horiz-adv-x="668" 
d="M596 244v468h-138v-463q0 -62 -33.5 -96.5t-90.5 -34.5t-90 34.5t-33 96.5v463h-139v-468q0 -57 20.5 -103t56 -78.5t83 -50.5t102.5 -18t102.5 18t83 50.5t56 78.5t20.5 103z" />
    <glyph glyph-name="V" unicode="V" horiz-adv-x="581" 
d="M578 712h-145l-143 -464l-143 464h-144l235 -712h104z" />
    <glyph glyph-name="W" unicode="W" horiz-adv-x="887" 
d="M881 712h-145l-111 -449l-130 449h-104l-130 -449l-110 449h-145l190 -712h116l131 432l131 -432h116z" />
    <glyph glyph-name="X" unicode="X" horiz-adv-x="603" 
d="M598 0l-222 365l207 347h-157l-125 -230l-124 230h-158l207 -347l-221 -365h159l137 248l138 -248h159z" />
    <glyph glyph-name="Y" unicode="Y" horiz-adv-x="572" 
d="M569 712h-151l-131 -287l-133 287h-151l214 -420v-292h138v292z" />
    <glyph glyph-name="Z" unicode="Z" horiz-adv-x="548" 
d="M508 0v124h-305l305 478v110h-455v-124h291l-304 -476v-112h468z" />
    <glyph glyph-name="bracketleft" unicode="[" horiz-adv-x="378" 
d="M337 -74v117h-127v626h127v117h-257v-860h257z" />
    <glyph glyph-name="backslash" unicode="\" horiz-adv-x="403" 
d="M403 -74l-281 847h-122l281 -847h122z" />
    <glyph glyph-name="bracketright" unicode="]" horiz-adv-x="378" 
d="M299 -74v860h-257v-116h127v-628h-127v-116h257z" />
    <glyph glyph-name="asciicircum" unicode="^" horiz-adv-x="602" 
d="M539 389l-178 330h-120l-178 -330h136l102 188l102 -188h136z" />
    <glyph glyph-name="underscore" unicode="_" horiz-adv-x="602" 
d="M602 -178v87h-602v-87h602z" />
    <glyph glyph-name="grave" unicode="`" horiz-adv-x="500" 
d="M305 604l-64 170h-137l114 -170h87z" />
    <glyph glyph-name="a" unicode="a" horiz-adv-x="534" 
d="M467 0v343q0 92 -56 138t-166 46q-65 0 -107.5 -15t-80.5 -57l83 -81q10 12 20 20t21.5 13t25.5 7.5t33 2.5q52 0 74.5 -19.5t22.5 -62.5v-26h-123q-45 0 -78.5 -12t-55.5 -32.5t-33 -48t-11 -58.5q0 -35 11 -65t32 -52q46 -46 133 -46q45 0 73.5 12t54.5 38v-45h127z
M337 192q0 -48 -19 -66q-17 -17 -36 -21t-46 -4q-38 0 -56.5 16.5t-18.5 43.5q0 28 19 43.5t54 15.5h103v-28z" />
    <glyph glyph-name="b" unicode="b" horiz-adv-x="560" 
d="M509 261q0 29 -1 59.5t-6 59.5t-16 54.5t-30 45.5q-22 22 -55.5 34.5t-71.5 12.5q-40 0 -70 -11.5t-56 -40.5v237h-130v-712h126v49q27 -30 57.5 -42.5t72.5 -12.5q38 0 71.5 12.5t55.5 34.5q19 19 30 45t16 55t6 60t1 60zM379 261q0 -32 -3 -59.5t-12 -47.5t-26.5 -31.5
t-46.5 -11.5t-46.5 11.5t-26.5 31.5t-12 47.5t-3 59.5t3 59t12 47t26.5 31.5t46.5 11.5t46.5 -11.5t26.5 -31.5t12 -47t3 -59z" />
    <glyph glyph-name="c" unicode="c" horiz-adv-x="480" 
d="M452 65l-88 87q-20 -22 -39 -31.5t-45 -9.5q-46 0 -74 34q-29 36 -29 116q0 42 7 69t22 46q28 34 74 34q26 0 45 -9.5t39 -31.5l88 88q-35 36 -76.5 53t-95.5 17q-39 0 -80.5 -12t-75 -42t-55.5 -81.5t-22 -130.5t22 -130.5t55.5 -82t75 -42.5t80.5 -12q54 0 95.5 17.5
t76.5 53.5z" />
    <glyph glyph-name="d" unicode="d" horiz-adv-x="561" 
d="M488 0v712h-130v-237q-26 29 -56.5 40.5t-70.5 11.5q-38 0 -71.5 -12.5t-55.5 -34.5q-20 -20 -30.5 -45.5t-15.5 -54.5t-6 -59.5t-1 -59.5t1 -60t6 -60t15.5 -55t30.5 -45q22 -22 56 -34.5t72 -12.5q42 0 72 12.5t57 42.5v-49h127zM358 261q0 -32 -3 -59.5t-12.5 -47.5
t-27 -31.5t-46.5 -11.5t-46.5 11.5t-26.5 31.5t-12 47.5t-3 59.5t3 59t12 47t26.5 31.5t46.5 11.5t46.5 -11.5t27 -31.5t12.5 -47t3 -59z" />
    <glyph glyph-name="e" unicode="e" horiz-adv-x="548" 
d="M501 220v58q0 54 -15 99.5t-44 78.5t-71.5 52t-96.5 19q-51 0 -92.5 -17.5t-71.5 -51.5t-46.5 -83.5t-16.5 -113.5q0 -79 20.5 -130.5t54 -82t77 -42.5t89.5 -12q35 0 63 5.5t51.5 16t43.5 25.5t40 35l-79 77q-25 -25 -50 -37t-68 -12q-55 0 -84.5 32.5t-29.5 83.5h326z
M373 309h-198q1 17 3.5 29.5t8.5 26.5q11 23 32.5 38.5t54.5 15.5t54.5 -15.5t32.5 -38.5q6 -14 8.5 -26.5t3.5 -29.5z" />
    <glyph glyph-name="f" unicode="f" horiz-adv-x="342" 
d="M315 407v99h-96v57q0 47 45 47h51v110h-74q-40 0 -68.5 -13t-47 -34t-27.5 -47.5t-9 -54.5v-65h-54v-99h54v-407h130v407h96z" />
    <glyph glyph-name="g" unicode="g" horiz-adv-x="555" 
d="M482 19v502h-126v-49q-27 30 -56 42.5t-71 12.5q-38 0 -70.5 -12t-54.5 -34q-18 -18 -29 -40t-16 -47.5t-6.5 -55t-1.5 -63.5t1.5 -64t6.5 -55.5t16 -47.5t29 -40q22 -22 54 -34t70 -12t68 11.5t56 40.5v-53q0 -20 -5.5 -39.5t-18 -34.5t-32.5 -24.5t-49 -9.5
q-33 0 -56.5 9.5t-45.5 30.5l-81 -82q41 -39 85 -53.5t104 -14.5q52 0 94.5 16t72.5 45t46 68.5t16 86.5zM352 275q0 -26 -2.5 -50.5t-11.5 -43.5t-26 -30.5t-46 -11.5t-46 11.5t-25.5 30.5t-11 43.5t-2.5 50.5t2.5 50.5t11 43t25.5 30t46 11.5t46 -11.5t26 -30t11.5 -43
t2.5 -50.5z" />
    <glyph glyph-name="h" unicode="h" horiz-adv-x="569" 
d="M502 0v337q0 41 -11 76t-33 60.5t-54.5 39.5t-75.5 14q-35 0 -67 -13.5t-58 -40.5v239h-130v-712h130v318q0 25 7.5 43t19.5 28.5t27 15.5t30 5t30.5 -4.5t27.5 -15.5t19.5 -28.5t7.5 -43.5v-318h130z" />
    <glyph glyph-name="i" unicode="i" horiz-adv-x="275" 
d="M204 610v106h-133v-106h133zM203 0v521h-130v-521h130z" />
    <glyph glyph-name="j" unicode="j" horiz-adv-x="275" 
d="M204 610v106h-133v-106h133zM203 -46v567h-130v-559q0 -23 -10.5 -35t-35.5 -12h-50v-110h74q40 0 69 13t47.5 34t27 47.5t8.5 54.5z" />
    <glyph glyph-name="k" unicode="k" horiz-adv-x="559" 
d="M547 0l-200 311l186 210h-157l-173 -213v404h-130v-712h130v155l55 62l128 -217h161z" />
    <glyph glyph-name="l" unicode="l" horiz-adv-x="325" 
d="M294 0v110h-50q-25 0 -35.5 12t-10.5 35v555h-130v-563q0 -28 8.5 -54.5t27 -47.5t47.5 -34t69 -13h74z" />
    <glyph glyph-name="m" unicode="m" horiz-adv-x="876" 
d="M809 0v333q0 43 -12.5 79.5t-44.5 68.5q-22 22 -55.5 34t-72.5 12q-49 0 -86 -15.5t-70 -50.5q-25 34 -59.5 50t-78.5 16q-36 0 -70 -14t-60 -40v48h-127v-521h130v315q0 27 8 45t20.5 29t28 16t30.5 5t30.5 -5t28 -16t20 -29t7.5 -45v-315h130v318q0 25 8 43t20.5 28.5
t28 15.5t30.5 5t30.5 -5t28 -16t20 -29t7.5 -45v-315h130z" />
    <glyph glyph-name="n" unicode="n" horiz-adv-x="573" 
d="M506 0v333q0 43 -10.5 79.5t-42.5 68.5q-22 22 -53 34t-70 12q-36 0 -70 -13.5t-60 -40.5v48h-127v-521h130v315q0 27 8 45t20.5 29t28 16t30.5 5t30.5 -5t28 -16t20 -29t7.5 -45v-315h130z" />
    <glyph glyph-name="o" unicode="o" 
d="M492 261q0 71 -12 118t-47 84q-24 26 -64 45t-98 19t-97.5 -19t-63.5 -45q-35 -37 -47 -84t-12 -118t12 -118.5t47 -84.5q24 -26 63.5 -45t97.5 -19t98 19t64 45q35 37 47 84.5t12 118.5zM362 261q0 -41 -5 -74t-25 -53q-23 -23 -61 -23q-37 0 -60 23q-20 20 -25 53
t-5 74t5 73.5t25 52.5q23 23 60 23q38 0 61 -23q20 -20 25 -52.5t5 -73.5z" />
    <glyph glyph-name="p" unicode="p" horiz-adv-x="560" 
d="M509 261q0 29 -1 59.5t-6 59.5t-16 54.5t-30 45.5q-22 22 -55.5 34.5t-71.5 12.5q-42 0 -72.5 -12.5t-57.5 -42.5v49h-126v-712h130v237q26 -29 56 -40.5t70 -11.5q38 0 71.5 12.5t55.5 34.5q19 19 30 45t16 55t6 60t1 60zM379 261q0 -32 -3 -59.5t-12 -47.5t-26.5 -31.5
t-46.5 -11.5t-46.5 11.5t-26.5 31.5t-12 47.5t-3 59.5t3 59t12 47t26.5 31.5t46.5 11.5t46.5 -11.5t26.5 -31.5t12 -47t3 -59z" />
    <glyph glyph-name="q" unicode="q" horiz-adv-x="561" 
d="M488 -191v712h-127v-49q-27 30 -57 42.5t-72 12.5q-38 0 -72 -12.5t-56 -34.5q-20 -20 -30.5 -45.5t-15.5 -54.5t-6 -59.5t-1 -59.5t1 -60t6 -60t15.5 -55t30.5 -45q22 -22 55.5 -34.5t71.5 -12.5q40 0 70.5 11.5t56.5 40.5v-237h130zM358 261q0 -32 -3 -59.5
t-12.5 -47.5t-27 -31.5t-46.5 -11.5t-46.5 11.5t-26.5 31.5t-12 47.5t-3 59.5t3 59t12 47t26.5 31.5t46.5 11.5t46.5 -11.5t27 -31.5t12.5 -47t3 -59z" />
    <glyph glyph-name="r" unicode="r" horiz-adv-x="455" 
d="M454 478q-27 27 -56 38t-67 11q-42 0 -77 -16.5t-54 -39.5v50h-127v-521h130v314q0 25 7.5 43t19.5 30t27 17.5t30 5.5q24 0 39 -8t30 -23z" />
    <glyph glyph-name="s" unicode="s" horiz-adv-x="501" 
d="M465 164q0 66 -38.5 105.5t-116.5 47.5l-82 8q-17 1 -27.5 6t-16.5 11t-8 13.5t-2 14.5q0 20 17.5 35t56.5 15q34 0 66 -7.5t55 -27.5l80 81q-38 35 -88 48t-111 13q-40 0 -76.5 -11t-64 -32t-44 -52t-16.5 -71q0 -72 40.5 -105.5t111.5 -40.5l82 -8q31 -3 43 -15.5
t12 -32.5q0 -15 -8 -25t-21 -16.5t-29.5 -9.5t-33.5 -3q-30 0 -68.5 8.5t-70.5 40.5l-85 -85q25 -25 51 -39.5t54 -22.5t57 -10.5t60 -2.5q46 0 86.5 10.5t70.5 31.5t47 53t17 75z" />
    <glyph glyph-name="t" unicode="t" horiz-adv-x="352" 
d="M307 0v110h-47q-45 0 -45 47v250h92v99h-92v154h-130v-154h-55v-99h55v-258q0 -28 8.5 -54.5t27 -47.5t47 -34t68.5 -13h71z" />
    <glyph glyph-name="u" unicode="u" horiz-adv-x="573" 
d="M500 0v521h-130v-315q0 -27 -8 -45t-20.5 -29t-28 -16t-30.5 -5t-30.5 5t-28 16t-20 29t-7.5 45v315h-130v-333q0 -43 10.5 -79.5t42.5 -68.5q22 -22 53 -34t70 -12q36 0 70 13.5t60 40.5v-48h127z" />
    <glyph glyph-name="v" unicode="v" horiz-adv-x="493" 
d="M489 521h-137l-105 -322l-106 322h-137l192 -521h102z" />
    <glyph glyph-name="w" unicode="w" horiz-adv-x="759" 
d="M755 521h-137l-84 -322l-107 322h-95l-106 -322l-84 322h-138l160 -521h107l109 327l109 -327h107z" />
    <glyph glyph-name="x" unicode="x" horiz-adv-x="527" 
d="M515 0l-180 266l173 255h-156l-89 -149l-88 149h-156l173 -255l-180 -266h156l95 156l96 -156h156z" />
    <glyph glyph-name="y" unicode="y" horiz-adv-x="494" 
d="M490 521h-137l-104 -322l-108 322h-137l178 -484l-22 -64q-10 -29 -23.5 -38t-41.5 -9h-30v-117h51q32 0 60.5 8.5t51.5 31.5q22 22 39 67z" />
    <glyph glyph-name="z" unicode="z" horiz-adv-x="478" 
d="M434 0v117h-234l234 305v99h-384v-117h218l-231 -305v-99h397z" />
    <glyph glyph-name="braceleft" unicode="{" horiz-adv-x="457" 
d="M414 -74v117h-53q-23 0 -36 3t-21 11q-8 9 -12 23.5t-4 40.5v135q0 27 -7 44.5t-17.5 28.5t-22.5 17t-22 10q10 4 22 10t22.5 17t17.5 28.5t7 44.5v135q0 26 4 40.5t12 23.5q8 8 21 11t36 3h53v117h-102q-39 0 -66.5 -9.5t-45.5 -27.5q-42 -42 -42 -111v-145
q0 -43 -17 -60q-8 -8 -21 -13.5t-31 -5.5h-46v-116h46q18 0 31 -5.5t21 -13.5q17 -17 17 -60v-145q0 -69 42 -111q18 -18 45.5 -27.5t66.5 -9.5h102z" />
    <glyph glyph-name="bar" unicode="|" horiz-adv-x="350" 
d="M240 -74v860h-130v-860h130z" />
    <glyph glyph-name="braceright" unicode="}" horiz-adv-x="457" 
d="M414 298v116h-46q-18 0 -31 5.5t-21 13.5q-17 17 -17 60v145q0 69 -42 111q-18 18 -45.5 27.5t-66.5 9.5h-102v-117h53q23 0 36 -3t21 -11q8 -9 12 -23.5t4 -40.5v-135q0 -27 7 -44.5t17.5 -28.5t22.5 -17t22 -10q-10 -4 -22 -10t-22.5 -17t-17.5 -28.5t-7 -44.5v-135
q0 -26 -4 -40.5t-12 -23.5q-8 -8 -21 -11t-36 -3h-53v-117h102q39 0 66.5 9.5t45.5 27.5q42 42 42 111v145q0 43 17 60q8 8 21 13.5t31 5.5h46z" />
    <glyph glyph-name="asciitilde" unicode="~" horiz-adv-x="606" 
d="M569 281l-83 82q-28 -28 -47.5 -35t-39.5 -7q-22 0 -40.5 6.5t-40.5 17.5q-32 17 -59 25.5t-58 8.5q-23 0 -42.5 -4.5t-39 -15t-39.5 -27t-43 -39.5l82 -82q28 28 47 35t39 7q22 0 41 -6.5t41 -17.5q32 -17 59 -25.5t58 -8.5q23 0 43 4.5t39.5 15t39.5 27t43 39.5z" />
    <glyph glyph-name="exclamdown" unicode="&#xa1;" horiz-adv-x="347" 
d="M224 388v133h-137v-133h137zM236 -191l-32 489h-97l-32 -489h161z" />
    <glyph glyph-name="cent" unicode="&#xa2;" horiz-adv-x="499" 
d="M469 180l-86 84q-15 -16 -29.5 -26t-34.5 -15v286q20 -5 34.5 -15t29.5 -26l86 84q-29 30 -61.5 48.5t-74.5 26.5v85h-101v-85q-39 -8 -73 -28t-59 -52.5t-39 -77.5t-14 -103t14 -103t39 -77.5t59 -52.5t73 -28v-105h101v105q42 8 74.5 26.5t61.5 48.5zM246 225
q-23 6 -38 26q-15 19 -23 46t-8 69t8 69t23 46q17 20 38 26v-282z" />
    <glyph glyph-name="sterling" unicode="&#xa3;" horiz-adv-x="579" 
d="M534 0v124h-295v173h113v100h-113v75q0 62 31 92t82 30q35 0 54.5 -11.5t36.5 -28.5l91 91q-40 40 -82 56.5t-100 16.5q-50 0 -95 -15.5t-80 -45.5t-55.5 -75t-20.5 -104v-81h-61v-100h61v-297h433z" />
    <glyph glyph-name="currency" unicode="&#xa4;" horiz-adv-x="669" 
d="M610 96l-73 73q15 26 23.5 55.5t8.5 61.5t-8.5 61.5t-23.5 55.5l73 73l-85 86l-74 -73q-26 15 -55.5 23.5t-61.5 8.5t-61 -8.5t-55 -23.5l-74 73l-86 -86l74 -73q-15 -26 -24 -55.5t-9 -61.5t9 -61.5t24 -55.5l-74 -73l86 -86l74 73q26 -15 55 -23.5t61 -8.5t61.5 8.5
t55.5 23.5l74 -73zM452 286q0 -24 -9.5 -45.5t-25.5 -37.5t-37.5 -25t-45.5 -9t-45.5 9t-37.5 25t-25 37.5t-9 45.5t9 45.5t25 37.5t37.5 25t45.5 9t45.5 -9t37.5 -25t25.5 -37.5t9.5 -45.5z" />
    <glyph glyph-name="yen" unicode="&#xa5;" horiz-adv-x="571" 
d="M568 712h-150l-132 -288l-132 288h-151l137 -270h-75v-100h126l26 -50v-51h-152v-100h152v-141h138v141h151v100h-151v51l26 50h125v100h-74z" />
    <glyph glyph-name="brokenbar" unicode="&#xa6;" horiz-adv-x="353" 
d="M240 436v350h-130v-350h130zM240 -74v350h-130v-350h130z" />
    <glyph glyph-name="section" unicode="&#xa7;" horiz-adv-x="531" 
d="M473 274q0 79 -37 122t-109 66l-62 20q-67 22 -67 66q0 26 17.5 42.5t52.5 16.5q29 0 48.5 -14t21.5 -47h122q0 36 -12 67.5t-35.5 54.5t-59.5 36.5t-85 13.5t-85 -14.5t-60 -38.5t-35.5 -55t-11.5 -65q0 -55 22 -84.5t54 -46.5q-15 -8 -31 -22t-29.5 -33t-22 -42.5
t-8.5 -51.5q0 -40 9.5 -69.5t27.5 -52t45.5 -38.5t63.5 -28l62 -21q41 -14 55.5 -34t14.5 -40q0 -29 -19 -46.5t-54 -17.5q-34 0 -53 17.5t-21 45.5h-125q1 -48 18.5 -81.5t45.5 -55t63.5 -31.5t71.5 -10q37 0 72.5 11.5t63.5 34t45 57t17 80.5q0 58 -24 90t-57 49
q14 8 29.5 22t29 33t22.5 42.5t9 51.5zM348 269q0 -27 -8 -42.5t-17 -24.5t-23 -15t-33 -6t-33.5 6t-23.5 15t-16.5 24.5t-7.5 42.5q0 26 6.5 41.5t17.5 26.5q9 9 23.5 15t33.5 6t32.5 -6t23.5 -15q11 -11 18 -26.5t7 -41.5z" />
    <glyph glyph-name="dieresis" unicode="&#xa8;" horiz-adv-x="500" 
d="M416 606v125h-111v-125h111zM195 606v125h-111v-125h111z" />
    <glyph glyph-name="copyright" unicode="&#xa9;" horiz-adv-x="844" 
d="M784 356q0 75 -28.5 141t-77.5 115t-115 77.5t-141 28.5t-141 -28.5t-115 -77.5t-77.5 -115t-28.5 -141t28.5 -141t77.5 -115t115 -77.5t141 -28.5t141 28.5t115 77.5t77.5 115t28.5 141zM697 356q0 -60 -21 -111.5t-58 -89t-87.5 -59t-108.5 -21.5t-108.5 21.5t-87.5 59
t-58.5 89t-21.5 111.5t21.5 111.5t58.5 89t87.5 59t108.5 21.5t108.5 -21.5t87.5 -59t58 -89t21 -111.5zM561 212l-56 56q-20 -17 -36.5 -24.5t-39.5 -7.5q-48 0 -71 32.5t-23 87.5t23 87.5t71 32.5q23 0 39.5 -7.5t36.5 -24.5l56 56q-29 25 -59.5 39t-72.5 14
q-38 0 -70.5 -13t-56.5 -37.5t-38 -61.5t-14 -85t14 -84.5t38 -61.5t56.5 -37.5t70.5 -12.5q42 0 73 13.5t59 38.5z" />
    <glyph glyph-name="ordfeminine" unicode="&#xaa;" horiz-adv-x="454" 
d="M392 296v274q0 73 -44.5 110t-132.5 37q-52 0 -86 -12t-65 -46l67 -65q17 19 33.5 26.5t45.5 7.5q42 0 59.5 -15.5t17.5 -49.5v-20h-97q-36 0 -63 -9.5t-44.5 -26t-26 -38.5t-8.5 -47q0 -57 35 -92q36 -38 105 -38q36 0 58 9.5t43 30.5v-36h103zM287 449q0 -37 -15 -51
q-13 -12 -28 -15.5t-37 -3.5q-29 0 -43 12.5t-14 33.5t14 34t42 13h81v-23z" />
    <glyph glyph-name="guillemotleft" unicode="&#xab;" horiz-adv-x="628" 
d="M562 27v155l-96 93l96 93v155l-250 -248zM283 27v155l-94 93l94 93v155l-249 -248z" />
    <glyph glyph-name="logicalnot" unicode="&#xac;" 
d="M497 94v266h-451v-121h330v-145h121z" />
    <glyph glyph-name="minus" unicode="&#xad;" 
d="M493 225v121h-443v-121h443z" />
    <glyph glyph-name="registered" unicode="&#xae;" horiz-adv-x="844" 
d="M784 356q0 75 -28.5 141t-77.5 115t-115 77.5t-141 28.5t-141 -28.5t-115 -77.5t-77.5 -115t-28.5 -141t28.5 -141t77.5 -115t115 -77.5t141 -28.5t141 28.5t115 77.5t77.5 115t28.5 141zM698 356q0 -60 -21 -111.5t-58.5 -89t-88 -59t-108.5 -21.5q-59 0 -109 21.5
t-87.5 59t-58.5 89t-21 111.5t21 111.5t58.5 89t87.5 59t109 21.5q58 0 108.5 -21.5t88 -59t58.5 -89t21 -111.5zM585 164l-81 162q28 11 49.5 36.5t21.5 65.5q0 24 -9 46t-25.5 38.5t-40.5 26.5t-53 10h-157v-385h86v149h41l70 -149h98zM489 428q0 -20 -14.5 -35t-38.5 -15
h-60v100h60q24 0 38.5 -15t14.5 -35z" />
    <glyph glyph-name="macron" unicode="&#xaf;" horiz-adv-x="500" 
d="M408 630v87h-316v-87h316z" />
    <glyph glyph-name="degree" unicode="&#xb0;" horiz-adv-x="478" 
d="M423 542q0 38 -14.5 72t-39.5 59t-58.5 39.5t-71.5 14.5t-71.5 -14.5t-58.5 -39.5t-39.5 -59t-14.5 -72t14.5 -71.5t39.5 -58.5t58.5 -39.5t71.5 -14.5t71.5 14.5t58.5 39.5t39.5 58.5t14.5 71.5zM318 542q0 -34 -23 -57t-56 -23t-56 23t-23 57t22.5 57t55.5 23t56.5 -23
t23.5 -57z" />
    <glyph glyph-name="plusminus" unicode="&#xb1;" 
d="M493 341v121h-160v161h-122v-161h-161v-121h161v-161h122v161h160zM493 0v122h-443v-122h443z" />
    <glyph glyph-name="twosuperior" unicode="&#xb2;" horiz-adv-x="358" 
d="M315 285v85h-157l105 114q25 27 38.5 49t13.5 55q0 60 -38.5 94t-97.5 34q-28 0 -53 -8.5t-43.5 -25t-29 -40.5t-10.5 -55h94q0 26 13.5 35t28.5 9q20 0 31 -11.5t11 -31.5q0 -14 -5 -24t-17 -23l-156 -171v-85h272z" />
    <glyph glyph-name="threesuperior" unicode="&#xb3;" horiz-adv-x="368" 
d="M325 412q0 38 -15.5 60t-34.5 34q17 11 31 30t14 54q0 28 -10.5 51t-28.5 39.5t-43 26t-54 9.5q-28 0 -53 -8.5t-43.5 -25t-29 -40t-10.5 -53.5h94q0 20 12.5 31t29.5 11t29.5 -11t12.5 -33q0 -16 -10.5 -29.5t-33.5 -13.5h-13v-81h13q23 0 36 -13.5t13 -34.5
q0 -24 -13 -37t-34 -13q-20 0 -33.5 12t-13.5 36h-94q0 -35 12 -60t32 -41t45 -23.5t52 -7.5q28 0 53.5 8t45 24t31 41t11.5 58z" />
    <glyph glyph-name="acute" unicode="&#xb4;" horiz-adv-x="500" 
d="M396 774h-137l-64 -170h87z" />
    <glyph glyph-name="mu" unicode="&#xb5;" horiz-adv-x="576" 
d="M503 0v521h-130v-315q0 -27 -8 -45t-20.5 -29t-28 -16t-30.5 -5t-30.5 5t-28 16t-20 29t-7.5 45v315h-130v-712h130v199q19 -14 46 -14q36 0 70 13.5t60 40.5v-48h127z" />
    <glyph glyph-name="paragraph" unicode="&#xb6;" horiz-adv-x="668" 
d="M585 -191v903h-319q-52 0 -94.5 -13.5t-73 -39t-47 -63.5t-16.5 -87q0 -42 15.5 -78.5t42 -63.5t60.5 -43t72 -16v-499h130v779h100v-779h130z" />
    <glyph glyph-name="periodcentered" unicode="&#xb7;" horiz-adv-x="285" 
d="M217 212v148h-149v-148h149z" />
    <glyph glyph-name="periodcentered" unicode="&#x2219;" horiz-adv-x="285" 
d="M217 212v148h-149v-148h149z" />
    <glyph glyph-name="cedilla" unicode="&#xb8;" horiz-adv-x="500" 
d="M325 -60h-96l-69 -146h121z" />
    <glyph glyph-name="onesuperior" unicode="&#xb9;" horiz-adv-x="292" 
d="M223 285v427h-95l-90 -78v-106l90 78v-321h95z" />
    <glyph glyph-name="ordmasculine" unicode="&#xba;" horiz-adv-x="462" 
d="M407 504q0 57 -9.5 94.5t-38.5 67.5q-20 20 -51 35.5t-77 15.5t-77 -15.5t-51 -35.5q-29 -30 -38.5 -67.5t-9.5 -94.5t9.5 -94t38.5 -67q20 -20 51 -35.5t77 -15.5t77 15.5t51 35.5q29 30 38.5 67t9.5 94zM302 504q0 -32 -3.5 -58t-19.5 -42q-18 -18 -48 -18t-48 18
q-16 16 -19.5 42t-3.5 58t3.5 58.5t19.5 42.5q18 18 48 18t48 -18q16 -16 19.5 -42.5t3.5 -58.5z" />
    <glyph glyph-name="guillemotright" unicode="&#xbb;" horiz-adv-x="628" 
d="M595 275l-250 248v-155l94 -93l-94 -93v-155zM316 275l-249 248v-155l95 -93l-95 -93v-155z" />
    <glyph glyph-name="onequarter" unicode="&#xbc;" horiz-adv-x="836" 
d="M796 57v89h-33v62h-90v-62h-74l144 281h-103l-143 -281v-89h176v-57h90v57h33zM625 712h-102l-337 -712h102zM223 285v427h-95l-90 -78v-106l90 78v-321h95z" />
    <glyph glyph-name="onehalf" unicode="&#xbd;" horiz-adv-x="862" 
d="M819 0v85h-157l105 114q25 27 38.5 49t13.5 55q0 60 -38.5 94t-97.5 34q-28 0 -53 -8.5t-43.5 -25t-29 -40.5t-10.5 -55h95q0 26 13 35t28 9q20 0 31.5 -11.5t11.5 -31.5q0 -14 -5.5 -24t-17.5 -23l-156 -171v-85h272zM620 712h-101l-337 -712h101zM223 285v427h-95
l-90 -78v-106l90 78v-321h95z" />
    <glyph glyph-name="threequarters" unicode="&#xbe;" horiz-adv-x="865" 
d="M825 57v89h-33v62h-90v-62h-74l144 281h-103l-143 -281v-89h176v-57h90v57h33zM657 712h-102l-337 -712h102zM325 412q0 38 -15.5 60t-34.5 34q17 11 31 30t14 54q0 28 -10.5 51t-28.5 39.5t-43 26t-54 9.5q-28 0 -53 -8.5t-43.5 -25t-29 -40t-10.5 -53.5h94
q0 20 12.5 31t29.5 11t29.5 -11t12.5 -33q0 -16 -10.5 -29.5t-33.5 -13.5h-13v-81h13q23 0 36 -13.5t13 -34.5q0 -24 -13 -37t-34 -13q-20 0 -33.5 12t-13.5 36h-94q0 -35 12 -60t32 -41t45 -23.5t52 -7.5q28 0 53.5 8t45 24t31 41t11.5 58z" />
    <glyph glyph-name="questiondown" unicode="&#xbf;" horiz-adv-x="523" 
d="M311 388v133h-138v-133h138zM457 4h-130q0 -35 -20.5 -59.5t-60.5 -24.5q-38 0 -59 23.5t-21 58.5q0 17 8.5 34t20.5 33l74 95q20 26 29 49t9 55v30h-130v-20q0 -13 -5 -27t-13 -24l-74 -99q-21 -28 -35 -57.5t-14 -67.5q0 -48 17 -85t45.5 -62.5t67 -39t80.5 -13.5
q43 0 81.5 14t67.5 40t45.5 63t16.5 84z" />
    <glyph glyph-name="Agrave" unicode="&#xc0;" horiz-adv-x="638" 
d="M633 0l-260 712h-109l-259 -712h145l43 126h253l42 -126h145zM409 243h-177l90 259zM372 781l-64 170h-137l114 -170h87z" />
    <glyph glyph-name="Aacute" unicode="&#xc1;" horiz-adv-x="638" 
d="M633 0l-260 712h-109l-259 -712h145l43 126h253l42 -126h145zM409 243h-177l90 259zM463 951h-137l-64 -170h87z" />
    <glyph glyph-name="Acircumflex" unicode="&#xc2;" horiz-adv-x="638" 
d="M633 0l-260 712h-109l-259 -712h145l43 126h253l42 -126h145zM409 243h-177l90 259zM501 781l-132 169h-104l-132 -169h101l83 91l83 -91h101z" />
    <glyph glyph-name="Atilde" unicode="&#xc3;" horiz-adv-x="638" 
d="M633 0l-260 712h-109l-259 -712h145l43 126h253l42 -126h145zM409 243h-177l90 259zM497 851l-58 57q-20 -20 -33 -24.5t-26 -4.5q-15 0 -27.5 4.5t-27.5 13.5q-21 13 -37.5 18t-39.5 5q-29 0 -54 -13t-58 -46l56 -57q20 20 33 24.5t26 4.5q15 0 28.5 -5t27.5 -13
q21 -12 38 -17.5t39 -5.5q29 0 54.5 13t58.5 46z" />
    <glyph glyph-name="Adieresis" unicode="&#xc4;" horiz-adv-x="638" 
d="M633 0l-260 712h-109l-259 -712h145l43 126h253l42 -126h145zM409 243h-177l90 259zM483 783v125h-111v-125h111zM262 783v125h-111v-125h111z" />
    <glyph glyph-name="Aring" unicode="&#xc5;" horiz-adv-x="638" 
d="M633 0l-260 712h-109l-259 -712h145l43 126h253l42 -126h145zM409 243h-177l90 259zM448 884q0 27 -10.5 51t-28 42t-41.5 28t-51 10t-51 -10.5t-41.5 -28t-28 -41.5t-10.5 -51t10.5 -51t28 -41.5t41.5 -28t51 -10.5t51 10.5t41.5 28t28 41.5t10.5 51zM375 884
q0 -24 -17 -41.5t-41 -17.5t-41 17.5t-17 41.5t17 41t41 17t41 -17t17 -41z" />
    <glyph glyph-name="AE" unicode="&#xc6;" horiz-adv-x="979" 
d="M926 0v124h-330v172h282v124h-282v168h330v124h-551l-372 -712h149l81 156h225v-156h468zM458 273h-165l165 315v-315z" />
    <glyph glyph-name="Ccedilla" unicode="&#xc7;" horiz-adv-x="620" 
d="M583 219h-141q-11 -43 -39 -72t-81 -29q-29 0 -51.5 10t-37.5 27q-10 11 -17 24.5t-11 35.5t-5.5 56t-1.5 85t1.5 85t5.5 56t11 35.5t17 24.5q15 17 37.5 27t51.5 10q53 0 81 -29t39 -72h141q-9 56 -32.5 98t-58 70.5t-78 42.5t-93.5 14q-59 0 -106.5 -20t-85.5 -58
q-27 -27 -41.5 -57.5t-20.5 -65.5t-7 -75t-1 -86t1 -86t7 -75t20.5 -65.5t41.5 -57.5q38 -38 85.5 -58t106.5 -20q49 0 93 14t78.5 42.5t58 70.5t32.5 98zM379 -60h-96l-69 -146h121z" />
    <glyph glyph-name="Egrave" unicode="&#xc8;" horiz-adv-x="605" 
d="M552 0v124h-330v173h281v124h-281v167h330v124h-469v-712h469zM365 781l-64 170h-137l114 -170h87z" />
    <glyph glyph-name="Eacute" unicode="&#xc9;" horiz-adv-x="605" 
d="M552 0v124h-330v173h281v124h-281v167h330v124h-469v-712h469zM455 951h-137l-64 -170h87z" />
    <glyph glyph-name="Ecircumflex" unicode="&#xca;" horiz-adv-x="605" 
d="M552 0v124h-330v173h281v124h-281v167h330v124h-469v-712h469zM494 781l-132 169h-104l-132 -169h101l83 91l83 -91h101z" />
    <glyph glyph-name="Edieresis" unicode="&#xcb;" horiz-adv-x="605" 
d="M552 0v124h-330v173h281v124h-281v167h330v124h-469v-712h469zM476 783v125h-111v-125h111zM255 783v125h-111v-125h111z" />
    <glyph glyph-name="Igrave" unicode="&#xcc;" horiz-adv-x="305" 
d="M222 0v712h-139v-712h139zM285 781l-64 170h-137l114 -170h87z" />
    <glyph glyph-name="Iacute" unicode="&#xcd;" horiz-adv-x="305" 
d="M222 0v712h-139v-712h139zM285 951h-137l-64 -170h87z" />
    <glyph glyph-name="Icircumflex" unicode="&#xce;" horiz-adv-x="305" 
d="M222 0v712h-139v-712h139zM451 781l-132 169h-104l-132 -169h101l83 91l83 -91h101z" />
    <glyph glyph-name="Idieresis" unicode="&#xcf;" horiz-adv-x="305" 
d="M222 0v712h-139v-712h139zM416 783v125h-111v-125h111zM195 783v125h-111v-125h111z" />
    <glyph glyph-name="Eth" unicode="&#xd0;" horiz-adv-x="682" 
d="M623 356q0 48 -0.5 85.5t-6 69.5t-18.5 60t-38 57q-37 42 -87 63t-110 21h-257v-299h-69v-106h69v-307h255q63 0 113.5 22t85.5 61q25 27 38 55t18.5 60t6 70.5t0.5 87.5zM484 354q0 -48 -1 -77.5t-3 -48.5t-7 -30t-12 -22q-17 -25 -44 -39t-67 -14h-105v184h116v106
h-116v176h105q39 0 65 -13t44 -39q8 -11 13 -23.5t7.5 -32.5t3.5 -50t1 -77z" />
    <glyph glyph-name="Ntilde" unicode="&#xd1;" horiz-adv-x="711" 
d="M628 0v712h-139v-436l-282 436h-124v-712h139v437l282 -437h124zM536 851l-58 57q-20 -20 -33 -24.5t-26 -4.5q-15 0 -27.5 4.5t-27.5 13.5q-21 13 -37.5 18t-39.5 5q-29 0 -54 -13t-58 -46l56 -57q20 20 33 24.5t26 4.5q15 0 28.5 -5t27.5 -13q21 -12 38 -17.5t39 -5.5
q29 0 54.5 13t58.5 46z" />
    <glyph glyph-name="Ograve" unicode="&#xd2;" horiz-adv-x="644" 
d="M585 356q0 46 -1 86t-7.5 75t-21 65.5t-41.5 57.5q-38 38 -84.5 58t-107.5 20t-108 -20t-85 -58q-27 -27 -41.5 -57.5t-20.5 -65.5t-7 -75t-1 -86t1 -86t7 -75t20.5 -65.5t41.5 -57.5q38 -38 85 -58t108 -20t107.5 20t84.5 58q27 27 41.5 57.5t21 65.5t7.5 75t1 86z
M446 356q0 -51 -1.5 -84.5t-5.5 -55.5t-11 -35.5t-17 -24.5q-15 -17 -37.5 -27.5t-51.5 -10.5t-52 10.5t-38 27.5q-10 11 -16.5 24.5t-10.5 35.5t-5.5 55.5t-1.5 84.5t1.5 84.5t5.5 55.5t10.5 35.5t16.5 24.5q15 17 38 27.5t52 10.5t51.5 -10.5t37.5 -27.5q10 -11 17 -24.5
t11 -35.5t5.5 -55.5t1.5 -84.5zM377 781l-64 170h-137l114 -170h87z" />
    <glyph glyph-name="Oacute" unicode="&#xd3;" horiz-adv-x="644" 
d="M585 356q0 46 -1 86t-7.5 75t-21 65.5t-41.5 57.5q-38 38 -84.5 58t-107.5 20t-108 -20t-85 -58q-27 -27 -41.5 -57.5t-20.5 -65.5t-7 -75t-1 -86t1 -86t7 -75t20.5 -65.5t41.5 -57.5q38 -38 85 -58t108 -20t107.5 20t84.5 58q27 27 41.5 57.5t21 65.5t7.5 75t1 86z
M446 356q0 -51 -1.5 -84.5t-5.5 -55.5t-11 -35.5t-17 -24.5q-15 -17 -37.5 -27.5t-51.5 -10.5t-52 10.5t-38 27.5q-10 11 -16.5 24.5t-10.5 35.5t-5.5 55.5t-1.5 84.5t1.5 84.5t5.5 55.5t10.5 35.5t16.5 24.5q15 17 38 27.5t52 10.5t51.5 -10.5t37.5 -27.5q10 -11 17 -24.5
t11 -35.5t5.5 -55.5t1.5 -84.5zM468 951h-137l-64 -170h87z" />
    <glyph glyph-name="Ocircumflex" unicode="&#xd4;" horiz-adv-x="644" 
d="M585 356q0 46 -1 86t-7.5 75t-21 65.5t-41.5 57.5q-38 38 -84.5 58t-107.5 20t-108 -20t-85 -58q-27 -27 -41.5 -57.5t-20.5 -65.5t-7 -75t-1 -86t1 -86t7 -75t20.5 -65.5t41.5 -57.5q38 -38 85 -58t108 -20t107.5 20t84.5 58q27 27 41.5 57.5t21 65.5t7.5 75t1 86z
M446 356q0 -51 -1.5 -84.5t-5.5 -55.5t-11 -35.5t-17 -24.5q-15 -17 -37.5 -27.5t-51.5 -10.5t-52 10.5t-38 27.5q-10 11 -16.5 24.5t-10.5 35.5t-5.5 55.5t-1.5 84.5t1.5 84.5t5.5 55.5t10.5 35.5t16.5 24.5q15 17 38 27.5t52 10.5t51.5 -10.5t37.5 -27.5q10 -11 17 -24.5
t11 -35.5t5.5 -55.5t1.5 -84.5zM506 781l-132 169h-104l-132 -169h101l83 91l83 -91h101z" />
    <glyph glyph-name="Otilde" unicode="&#xd5;" horiz-adv-x="644" 
d="M585 356q0 46 -1 86t-7.5 75t-21 65.5t-41.5 57.5q-38 38 -84.5 58t-107.5 20t-108 -20t-85 -58q-27 -27 -41.5 -57.5t-20.5 -65.5t-7 -75t-1 -86t1 -86t7 -75t20.5 -65.5t41.5 -57.5q38 -38 85 -58t108 -20t107.5 20t84.5 58q27 27 41.5 57.5t21 65.5t7.5 75t1 86z
M446 356q0 -51 -1.5 -84.5t-5.5 -55.5t-11 -35.5t-17 -24.5q-15 -17 -37.5 -27.5t-51.5 -10.5t-52 10.5t-38 27.5q-10 11 -16.5 24.5t-10.5 35.5t-5.5 55.5t-1.5 84.5t1.5 84.5t5.5 55.5t10.5 35.5t16.5 24.5q15 17 38 27.5t52 10.5t51.5 -10.5t37.5 -27.5q10 -11 17 -24.5
t11 -35.5t5.5 -55.5t1.5 -84.5zM502 851l-58 57q-20 -20 -33 -24.5t-26 -4.5q-15 0 -27.5 4.5t-27.5 13.5q-21 13 -37.5 18t-39.5 5q-29 0 -54 -13t-58 -46l56 -57q20 20 33 24.5t26 4.5q15 0 28.5 -5t27.5 -13q21 -12 38 -17.5t39 -5.5q29 0 54.5 13t58.5 46z" />
    <glyph glyph-name="Odieresis" unicode="&#xd6;" horiz-adv-x="644" 
d="M585 356q0 46 -1 86t-7.5 75t-21 65.5t-41.5 57.5q-38 38 -84.5 58t-107.5 20t-108 -20t-85 -58q-27 -27 -41.5 -57.5t-20.5 -65.5t-7 -75t-1 -86t1 -86t7 -75t20.5 -65.5t41.5 -57.5q38 -38 85 -58t108 -20t107.5 20t84.5 58q27 27 41.5 57.5t21 65.5t7.5 75t1 86z
M446 356q0 -51 -1.5 -84.5t-5.5 -55.5t-11 -35.5t-17 -24.5q-15 -17 -37.5 -27.5t-51.5 -10.5t-52 10.5t-38 27.5q-10 11 -16.5 24.5t-10.5 35.5t-5.5 55.5t-1.5 84.5t1.5 84.5t5.5 55.5t10.5 35.5t16.5 24.5q15 17 38 27.5t52 10.5t51.5 -10.5t37.5 -27.5q10 -11 17 -24.5
t11 -35.5t5.5 -55.5t1.5 -84.5zM488 783v125h-111v-125h111zM267 783v125h-111v-125h111z" />
    <glyph glyph-name="multiply" unicode="&#xd7;" 
d="M494 145l-141 141l141 141l-82 82l-141 -141l-140 141l-82 -82l141 -141l-141 -141l82 -82l140 141l141 -141z" />
    <glyph glyph-name="Oslash" unicode="&#xd8;" horiz-adv-x="652" 
d="M585 356q0 46 -1 86t-7.5 75t-21 65.5t-41.5 57.5l-5 5l53 111h-98l-29 -60q-48 22 -113 22q-61 0 -108 -20t-85 -58q-27 -27 -41.5 -57.5t-20.5 -65.5t-7 -75t-1 -86t1 -86t7 -75t20.5 -65.5t41.5 -57.5l5 -5l-53 -111h99l29 60q48 -22 113 -22q61 0 107.5 20t84.5 58
q27 27 41.5 57.5t21 65.5t7.5 75t1 86zM385 578l-178 -373q-5 22 -7 57t-2 94q0 51 1.5 84.5t5.5 55.5t10.5 35.5t16.5 24.5q15 17 38 27.5t52 10.5q37 0 63 -16zM446 356q0 -51 -1.5 -84.5t-5.5 -55.5t-11 -35.5t-17 -24.5q-15 -17 -37.5 -27.5t-51.5 -10.5q-36 0 -64 17
l178 372q5 -22 7.5 -57t2.5 -94z" />
    <glyph glyph-name="Ugrave" unicode="&#xd9;" horiz-adv-x="668" 
d="M596 244v468h-138v-463q0 -62 -33.5 -96.5t-90.5 -34.5t-90 34.5t-33 96.5v463h-139v-468q0 -57 20.5 -103t56 -78.5t83 -50.5t102.5 -18t102.5 18t83 50.5t56 78.5t20.5 103zM389 781l-64 170h-137l114 -170h87z" />
    <glyph glyph-name="Uacute" unicode="&#xda;" horiz-adv-x="668" 
d="M596 244v468h-138v-463q0 -62 -33.5 -96.5t-90.5 -34.5t-90 34.5t-33 96.5v463h-139v-468q0 -57 20.5 -103t56 -78.5t83 -50.5t102.5 -18t102.5 18t83 50.5t56 78.5t20.5 103zM480 951h-137l-64 -170h87z" />
    <glyph glyph-name="Ucircumflex" unicode="&#xdb;" horiz-adv-x="668" 
d="M596 244v468h-138v-463q0 -62 -33.5 -96.5t-90.5 -34.5t-90 34.5t-33 96.5v463h-139v-468q0 -57 20.5 -103t56 -78.5t83 -50.5t102.5 -18t102.5 18t83 50.5t56 78.5t20.5 103zM518 781l-132 169h-104l-132 -169h101l83 91l83 -91h101z" />
    <glyph glyph-name="Udieresis" unicode="&#xdc;" horiz-adv-x="668" 
d="M596 244v468h-138v-463q0 -62 -33.5 -96.5t-90.5 -34.5t-90 34.5t-33 96.5v463h-139v-468q0 -57 20.5 -103t56 -78.5t83 -50.5t102.5 -18t102.5 18t83 50.5t56 78.5t20.5 103zM500 783v125h-111v-125h111zM279 783v125h-111v-125h111z" />
    <glyph glyph-name="Yacute" unicode="&#xdd;" horiz-adv-x="572" 
d="M569 712h-151l-131 -287l-133 287h-151l214 -420v-292h138v292zM431 951h-137l-64 -170h87z" />
    <glyph glyph-name="Thorn" unicode="&#xde;" horiz-adv-x="633" 
d="M594 360q0 45 -16 85.5t-46.5 70.5t-74 47.5t-98.5 17.5h-137v131h-139v-712h139v138h137q55 0 98.5 17.5t74 48t46.5 71t16 85.5zM455 360q0 -44 -27.5 -71t-75.5 -27h-130v195h130q48 0 75.5 -26.5t27.5 -70.5z" />
    <glyph glyph-name="germandbls" unicode="&#xdf;" horiz-adv-x="574" 
d="M516 161v160q0 47 -17 71t-45 38q23 14 42 40.5t19 72.5q0 45 -16 78t-45 54.5t-69 32t-87 10.5q-48 0 -89.5 -11t-71.5 -35t-47 -61.5t-17 -89.5v-521h130v511q0 45 20 69.5t73 24.5q47 0 70 -21q19 -17 19 -45q0 -32 -18 -46t-42 -14h-28v-102h28q29 0 45 -16
q15 -15 15 -45v-144q0 -32 -17 -47t-45 -15h-26v-110h52q44 0 74.5 10.5t51.5 31.5q41 40 41 119z" />
    <glyph glyph-name="agrave" unicode="&#xe0;" horiz-adv-x="534" 
d="M467 0v343q0 92 -56 138t-166 46q-65 0 -107.5 -15t-80.5 -57l83 -81q10 12 20 20t21.5 13t25.5 7.5t33 2.5q52 0 74.5 -19.5t22.5 -62.5v-26h-123q-45 0 -78.5 -12t-55.5 -32.5t-33 -48t-11 -58.5q0 -35 11 -65t32 -52q46 -46 133 -46q45 0 73.5 12t54.5 38v-45h127z
M337 192q0 -48 -19 -66q-17 -17 -36 -21t-46 -4q-38 0 -56.5 16.5t-18.5 43.5q0 28 19 43.5t54 15.5h103v-28zM316 604l-64 170h-137l114 -170h87z" />
    <glyph glyph-name="aacute" unicode="&#xe1;" horiz-adv-x="534" 
d="M467 0v343q0 92 -56 138t-166 46q-65 0 -107.5 -15t-80.5 -57l83 -81q10 12 20 20t21.5 13t25.5 7.5t33 2.5q52 0 74.5 -19.5t22.5 -62.5v-26h-123q-45 0 -78.5 -12t-55.5 -32.5t-33 -48t-11 -58.5q0 -35 11 -65t32 -52q46 -46 133 -46q45 0 73.5 12t54.5 38v-45h127z
M337 192q0 -48 -19 -66q-17 -17 -36 -21t-46 -4q-38 0 -56.5 16.5t-18.5 43.5q0 28 19 43.5t54 15.5h103v-28zM407 774h-137l-64 -170h87z" />
    <glyph glyph-name="acircumflex" unicode="&#xe2;" horiz-adv-x="534" 
d="M467 0v343q0 92 -56 138t-166 46q-65 0 -107.5 -15t-80.5 -57l83 -81q10 12 20 20t21.5 13t25.5 7.5t33 2.5q52 0 74.5 -19.5t22.5 -62.5v-26h-123q-45 0 -78.5 -12t-55.5 -32.5t-33 -48t-11 -58.5q0 -35 11 -65t32 -52q46 -46 133 -46q45 0 73.5 12t54.5 38v-45h127z
M337 192q0 -48 -19 -66q-17 -17 -36 -21t-46 -4q-38 0 -56.5 16.5t-18.5 43.5q0 28 19 43.5t54 15.5h103v-28zM445 604l-132 169h-104l-132 -169h101l83 91l83 -91h101z" />
    <glyph glyph-name="atilde" unicode="&#xe3;" horiz-adv-x="534" 
d="M467 0v343q0 92 -56 138t-166 46q-65 0 -107.5 -15t-80.5 -57l83 -81q10 12 20 20t21.5 13t25.5 7.5t33 2.5q52 0 74.5 -19.5t22.5 -62.5v-26h-123q-45 0 -78.5 -12t-55.5 -32.5t-33 -48t-11 -58.5q0 -35 11 -65t32 -52q46 -46 133 -46q45 0 73.5 12t54.5 38v-45h127z
M337 192q0 -48 -19 -66q-17 -17 -36 -21t-46 -4q-38 0 -56.5 16.5t-18.5 43.5q0 28 19 43.5t54 15.5h103v-28zM441 674l-58 57q-20 -20 -33 -24.5t-26 -4.5q-15 0 -27.5 4.5t-27.5 13.5q-21 13 -37.5 18t-39.5 5q-29 0 -54 -13t-58 -46l56 -57q20 20 33 24.5t26 4.5
q15 0 28.5 -5t27.5 -13q21 -12 38 -17.5t39 -5.5q29 0 54.5 13t58.5 46z" />
    <glyph glyph-name="adieresis" unicode="&#xe4;" horiz-adv-x="534" 
d="M467 0v343q0 92 -56 138t-166 46q-65 0 -107.5 -15t-80.5 -57l83 -81q10 12 20 20t21.5 13t25.5 7.5t33 2.5q52 0 74.5 -19.5t22.5 -62.5v-26h-123q-45 0 -78.5 -12t-55.5 -32.5t-33 -48t-11 -58.5q0 -35 11 -65t32 -52q46 -46 133 -46q45 0 73.5 12t54.5 38v-45h127z
M337 192q0 -48 -19 -66q-17 -17 -36 -21t-46 -4q-38 0 -56.5 16.5t-18.5 43.5q0 28 19 43.5t54 15.5h103v-28zM427 606v125h-111v-125h111zM206 606v125h-111v-125h111z" />
    <glyph glyph-name="aring" unicode="&#xe5;" horiz-adv-x="534" 
d="M467 0v343q0 92 -56 138t-166 46q-65 0 -107.5 -15t-80.5 -57l83 -81q10 12 20 20t21.5 13t25.5 7.5t33 2.5q52 0 74.5 -19.5t22.5 -62.5v-26h-123q-45 0 -78.5 -12t-55.5 -32.5t-33 -48t-11 -58.5q0 -35 11 -65t32 -52q46 -46 133 -46q45 0 73.5 12t54.5 38v-45h127z
M337 192q0 -48 -19 -66q-17 -17 -36 -21t-46 -4q-38 0 -56.5 16.5t-18.5 43.5q0 28 19 43.5t54 15.5h103v-28zM392 715q0 27 -10.5 51t-28 42t-41.5 28t-51 10t-51 -10.5t-41.5 -28t-28 -41.5t-10.5 -51t10.5 -51t28 -41.5t41.5 -28t51 -10.5t51 10.5t41.5 28t28 41.5
t10.5 51zM319 715q0 -24 -17 -41.5t-41 -17.5t-41 17.5t-17 41.5t17 41t41 17t41 -17t17 -41z" />
    <glyph glyph-name="ae" unicode="&#xe6;" horiz-adv-x="838" 
d="M791 220v58q0 54 -15 99.5t-44 78.5t-71.5 52t-96.5 19q-45 0 -82.5 -14t-65.5 -43q-53 57 -171 57q-65 0 -107.5 -15t-80.5 -57l83 -81q10 12 20 20t21.5 13t25.5 7.5t33 2.5q52 0 74.5 -19.5t22.5 -62.5v-26h-123q-45 0 -78.5 -12t-55.5 -32.5t-33 -48t-11 -58.5
q0 -35 11 -65t32 -52q47 -47 133 -47q27 0 51 2.5t46.5 10.5t43.5 22.5t42 37.5q35 -40 82.5 -56.5t100.5 -16.5q35 0 63 5.5t51.5 16t43.5 25.5t40 35l-79 77q-25 -25 -50 -37t-68 -12q-55 0 -84.5 32.5t-29.5 83.5h326zM663 309h-198q1 17 3.5 29.5t8.5 26.5
q11 23 32.5 38.5t54.5 15.5t54.5 -15.5t32.5 -38.5q6 -14 8.5 -26.5t3.5 -29.5zM337 192q0 -48 -19 -66q-17 -17 -36 -21t-46 -4q-38 0 -56.5 16.5t-18.5 43.5q0 28 19 43.5t54 15.5h103v-28z" />
    <glyph glyph-name="ccedilla" unicode="&#xe7;" horiz-adv-x="482" 
d="M452 65l-88 87q-20 -22 -39 -31.5t-45 -9.5q-46 0 -74 34q-29 36 -29 116q0 42 7 69t22 46q28 34 74 34q26 0 45 -9.5t39 -31.5l88 88q-35 36 -76.5 53t-95.5 17q-39 0 -80.5 -12t-75 -42t-55.5 -81.5t-22 -130.5t22 -130.5t55.5 -82t75 -42.5t80.5 -12q54 0 95.5 17.5
t76.5 53.5zM325 -60h-96l-69 -146h121z" />
    <glyph glyph-name="egrave" unicode="&#xe8;" horiz-adv-x="548" 
d="M501 220v58q0 54 -15 99.5t-44 78.5t-71.5 52t-96.5 19q-51 0 -92.5 -17.5t-71.5 -51.5t-46.5 -83.5t-16.5 -113.5q0 -79 20.5 -130.5t54 -82t77 -42.5t89.5 -12q35 0 63 5.5t51.5 16t43.5 25.5t40 35l-79 77q-25 -25 -50 -37t-68 -12q-55 0 -84.5 32.5t-29.5 83.5h326z
M373 309h-198q1 17 3.5 29.5t8.5 26.5q11 23 32.5 38.5t54.5 15.5t54.5 -15.5t32.5 -38.5q6 -14 8.5 -26.5t3.5 -29.5zM332 604l-64 170h-137l114 -170h87z" />
    <glyph glyph-name="eacute" unicode="&#xe9;" horiz-adv-x="548" 
d="M501 220v58q0 54 -15 99.5t-44 78.5t-71.5 52t-96.5 19q-51 0 -92.5 -17.5t-71.5 -51.5t-46.5 -83.5t-16.5 -113.5q0 -79 20.5 -130.5t54 -82t77 -42.5t89.5 -12q35 0 63 5.5t51.5 16t43.5 25.5t40 35l-79 77q-25 -25 -50 -37t-68 -12q-55 0 -84.5 32.5t-29.5 83.5h326z
M373 309h-198q1 17 3.5 29.5t8.5 26.5q11 23 32.5 38.5t54.5 15.5t54.5 -15.5t32.5 -38.5q6 -14 8.5 -26.5t3.5 -29.5zM423 774h-137l-64 -170h87z" />
    <glyph glyph-name="ecircumflex" unicode="&#xea;" horiz-adv-x="548" 
d="M501 220v58q0 54 -15 99.5t-44 78.5t-71.5 52t-96.5 19q-51 0 -92.5 -17.5t-71.5 -51.5t-46.5 -83.5t-16.5 -113.5q0 -79 20.5 -130.5t54 -82t77 -42.5t89.5 -12q35 0 63 5.5t51.5 16t43.5 25.5t40 35l-79 77q-25 -25 -50 -37t-68 -12q-55 0 -84.5 32.5t-29.5 83.5h326z
M373 309h-198q1 17 3.5 29.5t8.5 26.5q11 23 32.5 38.5t54.5 15.5t54.5 -15.5t32.5 -38.5q6 -14 8.5 -26.5t3.5 -29.5zM461 604l-132 169h-104l-132 -169h101l83 91l83 -91h101z" />
    <glyph glyph-name="edieresis" unicode="&#xeb;" horiz-adv-x="548" 
d="M501 220v58q0 54 -15 99.5t-44 78.5t-71.5 52t-96.5 19q-51 0 -92.5 -17.5t-71.5 -51.5t-46.5 -83.5t-16.5 -113.5q0 -79 20.5 -130.5t54 -82t77 -42.5t89.5 -12q35 0 63 5.5t51.5 16t43.5 25.5t40 35l-79 77q-25 -25 -50 -37t-68 -12q-55 0 -84.5 32.5t-29.5 83.5h326z
M373 309h-198q1 17 3.5 29.5t8.5 26.5q11 23 32.5 38.5t54.5 15.5t54.5 -15.5t32.5 -38.5q6 -14 8.5 -26.5t3.5 -29.5zM443 606v125h-111v-125h111zM222 606v125h-111v-125h111z" />
    <glyph glyph-name="igrave" unicode="&#xec;" horiz-adv-x="275" 
d="M203 0v521h-130v-521h130zM275 604l-64 170h-137l114 -170h87z" />
    <glyph glyph-name="iacute" unicode="&#xed;" horiz-adv-x="275" 
d="M203 0v521h-130v-521h130zM275 774h-137l-64 -170h87z" />
    <glyph glyph-name="icircumflex" unicode="&#xee;" horiz-adv-x="275" 
d="M203 0v521h-130v-521h130zM441 604l-132 169h-104l-132 -169h101l83 91l83 -91h101z" />
    <glyph glyph-name="idieresis" unicode="&#xef;" horiz-adv-x="275" 
d="M203 0v521h-130v-521h130zM406 606v125h-111v-125h111zM185 606v125h-111v-125h111z" />
    <glyph glyph-name="eth" unicode="&#xf0;" 
d="M486 254q0 37 -3 65.5t-10 55t-19 54t-30 63.5l-40 77h46v91h-92l-31 60h-139l31 -60h-68v-91h114l34 -62q-20 2 -39 0t-37 -7q-57 -15 -89 -49q-35 -36 -46.5 -82t-11.5 -115t11.5 -115.5t46.5 -82.5q24 -25 62 -43.5t95 -18.5t95 18.5t62 43.5q35 36 46.5 82.5
t11.5 115.5zM356 254q0 -38 -4 -69.5t-23 -51.5q-22 -22 -58 -22q-35 0 -57 22q-19 20 -23.5 51.5t-4.5 69.5t4.5 69t23.5 51q22 22 57 22q36 0 58 -22q19 -20 23 -51t4 -69z" />
    <glyph glyph-name="ntilde" unicode="&#xf1;" horiz-adv-x="573" 
d="M506 0v333q0 43 -10.5 79.5t-42.5 68.5q-22 22 -53 34t-70 12q-36 0 -70 -13.5t-60 -40.5v48h-127v-521h130v315q0 27 8 45t20.5 29t28 16t30.5 5t30.5 -5t28 -16t20 -29t7.5 -45v-315h130zM470 674l-58 57q-20 -20 -33 -24.5t-26 -4.5q-15 0 -27.5 4.5t-27.5 13.5
q-21 13 -37.5 18t-39.5 5q-29 0 -54 -13t-58 -46l56 -57q20 20 33 24.5t26 4.5q15 0 28.5 -5t27.5 -13q21 -12 38 -17.5t39 -5.5q29 0 54.5 13t58.5 46z" />
    <glyph glyph-name="ograve" unicode="&#xf2;" 
d="M492 261q0 71 -12 118t-47 84q-24 26 -64 45t-98 19t-97.5 -19t-63.5 -45q-35 -37 -47 -84t-12 -118t12 -118.5t47 -84.5q24 -26 63.5 -45t97.5 -19t98 19t64 45q35 37 47 84.5t12 118.5zM362 261q0 -41 -5 -74t-25 -53q-23 -23 -61 -23q-37 0 -60 23q-20 20 -25 53
t-5 74t5 73.5t25 52.5q23 23 60 23q38 0 61 -23q20 -20 25 -52.5t5 -73.5zM323 604l-64 170h-137l114 -170h87z" />
    <glyph glyph-name="oacute" unicode="&#xf3;" 
d="M492 261q0 71 -12 118t-47 84q-24 26 -64 45t-98 19t-97.5 -19t-63.5 -45q-35 -37 -47 -84t-12 -118t12 -118.5t47 -84.5q24 -26 63.5 -45t97.5 -19t98 19t64 45q35 37 47 84.5t12 118.5zM362 261q0 -41 -5 -74t-25 -53q-23 -23 -61 -23q-37 0 -60 23q-20 20 -25 53
t-5 74t5 73.5t25 52.5q23 23 60 23q38 0 61 -23q20 -20 25 -52.5t5 -73.5zM418 774h-137l-64 -170h87z" />
    <glyph glyph-name="ocircumflex" unicode="&#xf4;" 
d="M492 261q0 71 -12 118t-47 84q-24 26 -64 45t-98 19t-97.5 -19t-63.5 -45q-35 -37 -47 -84t-12 -118t12 -118.5t47 -84.5q24 -26 63.5 -45t97.5 -19t98 19t64 45q35 37 47 84.5t12 118.5zM362 261q0 -41 -5 -74t-25 -53q-23 -23 -61 -23q-37 0 -60 23q-20 20 -25 53
t-5 74t5 73.5t25 52.5q23 23 60 23q38 0 61 -23q20 -20 25 -52.5t5 -73.5zM456 604l-132 169h-104l-132 -169h101l83 91l83 -91h101z" />
    <glyph glyph-name="otilde" unicode="&#xf5;" 
d="M492 261q0 71 -12 118t-47 84q-24 26 -64 45t-98 19t-97.5 -19t-63.5 -45q-35 -37 -47 -84t-12 -118t12 -118.5t47 -84.5q24 -26 63.5 -45t97.5 -19t98 19t64 45q35 37 47 84.5t12 118.5zM362 261q0 -41 -5 -74t-25 -53q-23 -23 -61 -23q-37 0 -60 23q-20 20 -25 53
t-5 74t5 73.5t25 52.5q23 23 60 23q38 0 61 -23q20 -20 25 -52.5t5 -73.5zM452 674l-58 57q-20 -20 -33 -24.5t-26 -4.5q-15 0 -27.5 4.5t-27.5 13.5q-21 13 -37.5 18t-39.5 5q-29 0 -54 -13t-58 -46l56 -57q20 20 33 24.5t26 4.5q15 0 28.5 -5t27.5 -13q21 -12 38 -17.5
t39 -5.5q29 0 54.5 13t58.5 46z" />
    <glyph glyph-name="odieresis" unicode="&#xf6;" 
d="M492 261q0 71 -12 118t-47 84q-24 26 -64 45t-98 19t-97.5 -19t-63.5 -45q-35 -37 -47 -84t-12 -118t12 -118.5t47 -84.5q24 -26 63.5 -45t97.5 -19t98 19t64 45q35 37 47 84.5t12 118.5zM362 261q0 -41 -5 -74t-25 -53q-23 -23 -61 -23q-37 0 -60 23q-20 20 -25 53
t-5 74t5 73.5t25 52.5q23 23 60 23q38 0 61 -23q20 -20 25 -52.5t5 -73.5zM438 606v125h-111v-125h111zM217 606v125h-111v-125h111z" />
    <glyph glyph-name="divide" unicode="&#xf7;" 
d="M337 423v130h-130v-130h130zM497 225v121h-451v-121h451zM337 18v130h-130v-130h130z" />
    <glyph glyph-name="oslash" unicode="&#xf8;" 
d="M492 261q0 71 -12 118t-47 84l-2 1l60 101h-80l-35 -60q-44 22 -105 22q-58 0 -97.5 -19t-63.5 -45q-35 -37 -47 -84t-12 -118t11.5 -119t47.5 -84l1 -1l-59 -101h79l36 61q21 -11 46.5 -17t57.5 -6q58 0 98 19t64 45q35 37 47 84.5t12 118.5zM320 397l-132 -222
q-5 18 -6 40t-1 46q0 41 5 73.5t25 52.5q23 23 60 23q28 0 49 -13zM362 261q0 -41 -5 -74t-25 -53q-23 -23 -61 -23q-27 0 -48 13l131 222q5 -18 6.5 -39.5t1.5 -45.5z" />
    <glyph glyph-name="ugrave" unicode="&#xf9;" horiz-adv-x="573" 
d="M500 0v521h-130v-315q0 -27 -8 -45t-20.5 -29t-28 -16t-30.5 -5t-30.5 5t-28 16t-20 29t-7.5 45v315h-130v-333q0 -43 10.5 -79.5t42.5 -68.5q22 -22 53 -34t70 -12q36 0 70 13.5t60 40.5v-48h127zM338 604l-64 170h-137l114 -170h87z" />
    <glyph glyph-name="uacute" unicode="&#xfa;" horiz-adv-x="573" 
d="M500 0v521h-130v-315q0 -27 -8 -45t-20.5 -29t-28 -16t-30.5 -5t-30.5 5t-28 16t-20 29t-7.5 45v315h-130v-333q0 -43 10.5 -79.5t42.5 -68.5q22 -22 53 -34t70 -12q36 0 70 13.5t60 40.5v-48h127zM429 774h-137l-64 -170h87z" />
    <glyph glyph-name="ucircumflex" unicode="&#xfb;" horiz-adv-x="573" 
d="M500 0v521h-130v-315q0 -27 -8 -45t-20.5 -29t-28 -16t-30.5 -5t-30.5 5t-28 16t-20 29t-7.5 45v315h-130v-333q0 -43 10.5 -79.5t42.5 -68.5q22 -22 53 -34t70 -12q36 0 70 13.5t60 40.5v-48h127zM467 604l-132 169h-104l-132 -169h101l83 91l83 -91h101z" />
    <glyph glyph-name="udieresis" unicode="&#xfc;" horiz-adv-x="573" 
d="M500 0v521h-130v-315q0 -27 -8 -45t-20.5 -29t-28 -16t-30.5 -5t-30.5 5t-28 16t-20 29t-7.5 45v315h-130v-333q0 -43 10.5 -79.5t42.5 -68.5q22 -22 53 -34t70 -12q36 0 70 13.5t60 40.5v-48h127zM449 606v125h-111v-125h111zM228 606v125h-111v-125h111z" />
    <glyph glyph-name="yacute" unicode="&#xfd;" horiz-adv-x="494" 
d="M490 521h-137l-104 -322l-108 322h-137l178 -484l-22 -64q-10 -29 -23.5 -38t-41.5 -9h-30v-117h51q32 0 60.5 8.5t51.5 31.5q22 22 39 67zM391 774h-137l-64 -170h87z" />
    <glyph glyph-name="thorn" unicode="&#xfe;" horiz-adv-x="562" 
d="M509 261q0 29 -1 59.5t-6 59.5t-16 54.5t-30 45.5q-22 22 -55.5 34.5t-71.5 12.5q-40 0 -70 -11.5t-56 -40.5v237h-130v-903h130v237q26 -29 56 -40.5t70 -11.5q38 0 71.5 12.5t55.5 34.5q19 19 30 45t16 55t6 60t1 60zM379 261q0 -32 -3 -59.5t-12 -47.5t-26.5 -31.5
t-46.5 -11.5t-46.5 11.5t-26.5 31.5t-12 47.5t-3 59.5t3 59t12 47t26.5 31.5t46.5 11.5t46.5 -11.5t26.5 -31.5t12 -47t3 -59z" />
    <glyph glyph-name="ydieresis" unicode="&#xff;" horiz-adv-x="494" 
d="M490 521h-137l-104 -322l-108 322h-137l178 -484l-22 -64q-10 -29 -23.5 -38t-41.5 -9h-30v-117h51q32 0 60.5 8.5t51.5 31.5q22 22 39 67zM411 606v125h-111v-125h111zM190 606v125h-111v-125h111z" />
    <glyph glyph-name="OE" unicode="&#x152;" horiz-adv-x="966" 
d="M912 0v123h-328v35q0 25 0.5 52.5t0.5 51.5v36h278v122h-278v34q0 24 -0.5 50.5t-0.5 49.5v35h327v123h-465v-44q-26 27 -60.5 38.5t-67.5 11.5q-61 0 -106 -18.5t-83 -56.5q-27 -27 -41 -57.5t-20.5 -66.5t-7.5 -76.5t-1 -86.5t1 -86.5t7.5 -76.5t20.5 -66.5t41 -57.5
q38 -38 83 -56.5t106 -18.5q32 0 67 11.5t61 38.5v-44h466zM446 356q0 -51 -1.5 -84.5t-5.5 -55.5t-11 -35.5t-17 -24.5q-15 -17 -37.5 -27.5t-51.5 -10.5t-52 10.5t-38 27.5q-10 11 -16.5 24.5t-10.5 35.5t-5.5 55.5t-1.5 84.5t1.5 84.5t5.5 55.5t10.5 35.5t16.5 24.5
q15 17 38 27.5t52 10.5t51.5 -10.5t37.5 -27.5q10 -11 17 -24.5t11 -35.5t5.5 -55.5t1.5 -84.5z" />
    <glyph glyph-name="oe" unicode="&#x153;" horiz-adv-x="863" 
d="M816 220v58q0 54 -15 99.5t-44 78.5t-71.5 52t-96.5 19q-100 0 -157 -69q-24 30 -64.5 49.5t-96.5 19.5q-58 0 -97.5 -19t-63.5 -45q-35 -37 -47 -84t-12 -118t12 -118.5t47 -84.5q24 -26 63.5 -45t97.5 -19q54 0 94 18.5t64 47.5q32 -36 77.5 -51t96.5 -15q35 0 63 5.5
t51.5 16t43.5 25.5t40 35l-80 77q-25 -25 -49.5 -37t-67.5 -12q-55 0 -84.5 32.5t-29.5 83.5h326zM687 309h-197q1 17 3 29.5t8 26.5q11 23 33 38.5t55 15.5t54.5 -15.5t32.5 -38.5q6 -14 8 -26.5t3 -29.5zM362 261q0 -41 -5 -74t-25 -53q-23 -23 -61 -23q-37 0 -60 23
q-20 20 -25 53t-5 74t5 73.5t25 52.5q23 23 60 23q38 0 61 -23q20 -20 25 -52.5t5 -73.5z" />
    <glyph glyph-name="Scaron" unicode="&#x160;" horiz-adv-x="591" 
d="M543 210q0 48 -13 86t-42 65q-23 21 -55 34.5t-81 20.5l-84 12q-22 3 -38.5 10.5t-27.5 17.5q-11 11 -16 24t-5 27q0 37 27 63.5t83 26.5q35 0 73.5 -8.5t72.5 -40.5l88 87q-46 45 -101 64t-129 19q-58 0 -104 -16t-78 -44.5t-49 -68t-17 -87.5q0 -89 51 -140
q47 -46 138 -59l86 -12q25 -4 38.5 -9.5t24.5 -15.5q22 -21 22 -60q0 -43 -32 -65.5t-94 -22.5q-50 0 -94 13t-78 47l-90 -90q52 -53 115.5 -73.5t144.5 -20.5q56 0 104 14.5t83.5 42t56 67.5t20.5 92zM478 950h-101l-83 -90l-83 90h-101l132 -169h104z" />
    <glyph glyph-name="scaron" unicode="&#x161;" horiz-adv-x="501" 
d="M465 164q0 66 -38.5 105.5t-116.5 47.5l-82 8q-17 1 -27.5 6t-16.5 11t-8 13.5t-2 14.5q0 20 17.5 35t56.5 15q34 0 66 -7.5t55 -27.5l80 81q-38 35 -88 48t-111 13q-40 0 -76.5 -11t-64 -32t-44 -52t-16.5 -71q0 -72 40.5 -105.5t111.5 -40.5l82 -8q31 -3 43 -15.5
t12 -32.5q0 -15 -8 -25t-21 -16.5t-29.5 -9.5t-33.5 -3q-30 0 -68.5 8.5t-70.5 40.5l-85 -85q25 -25 51 -39.5t54 -22.5t57 -10.5t60 -2.5q46 0 86.5 10.5t70.5 31.5t47 53t17 75zM434 773h-101l-83 -90l-83 90h-101l132 -169h104z" />
    <glyph glyph-name="Ydieresis" unicode="&#x178;" horiz-adv-x="572" 
d="M569 712h-151l-131 -287l-133 287h-151l214 -420v-292h138v292zM451 783v125h-111v-125h111zM230 783v125h-111v-125h111z" />
    <glyph glyph-name="florin" unicode="&#x192;" horiz-adv-x="427" 
d="M397 610v109l-74 1q-40 0 -70.5 -12.5t-52.5 -33.5t-35.5 -48t-18.5 -55l-31 -174h-84v-100h67l-87 -488h130l87 488h113v100h-96l29 166q8 47 54 47h69z" />
    <glyph glyph-name="circumflex" unicode="&#x2c6;" horiz-adv-x="500" 
d="M434 604l-132 169h-104l-132 -169h101l83 91l83 -91h101z" />
    <glyph glyph-name="tilde" unicode="&#x2dc;" horiz-adv-x="500" 
d="M430 674l-58 57q-20 -20 -33 -24.5t-26 -4.5q-15 0 -27.5 4.5t-27.5 13.5q-21 13 -37.5 18t-39.5 5q-29 0 -54 -13t-58 -46l56 -57q20 20 33 24.5t26 4.5q15 0 28.5 -5t27.5 -13q21 -12 38 -17.5t39 -5.5q29 0 54.5 13t58.5 46z" />
    <glyph glyph-name="endash" unicode="&#x2013;" 
d="M493 225v121h-443v-121h443z" />
    <glyph glyph-name="emdash" unicode="&#x2014;" horiz-adv-x="1027" 
d="M968 226v125h-909v-125h909z" />
    <glyph glyph-name="quoteleft" unicode="&#x2018;" horiz-adv-x="273" 
d="M204 589v228l-136 -105v-123h136z" />
    <glyph glyph-name="quoteright" unicode="&#x2019;" horiz-adv-x="273" 
d="M204 588v124h-136v-227z" />
    <glyph glyph-name="quotesinglbase" unicode="&#x201a;" horiz-adv-x="271" 
d="M204 0v124h-136v-228z" />
    <glyph glyph-name="quotedblleft" unicode="&#x201c;" horiz-adv-x="482" 
d="M414 589v228l-136 -105v-123h136zM203 589v228l-135 -105v-123h135z" />
    <glyph glyph-name="quotedblright" unicode="&#x201d;" horiz-adv-x="482" 
d="M414 588v124h-136v-227zM203 588v124h-135v-227z" />
    <glyph glyph-name="quotedblbase" unicode="&#x201e;" horiz-adv-x="485" 
d="M414 0v124h-136v-228zM203 0v124h-135v-228z" />
    <glyph glyph-name="dagger" unicode="&#x2020;" horiz-adv-x="579" 
d="M522 410v117h-168v185h-130v-185h-167v-117h167v-410h130v410h168z" />
    <glyph glyph-name="daggerdbl" unicode="&#x2021;" horiz-adv-x="579" 
d="M522 -6v117h-168v299h168v117h-168v185h-130v-185h-167v-117h167v-299h-167v-117h167v-185h130v185h168z" />
    <glyph glyph-name="bullet" unicode="&#x2022;" horiz-adv-x="493" 
d="M409 334q0 34 -13 63.5t-35 51.5t-51.5 35t-63.5 13t-63.5 -13t-51.5 -35t-35 -51.5t-13 -63.5t13 -63.5t35 -51.5t51.5 -35t63.5 -13t63.5 13t51.5 35t35 51.5t13 63.5z" />
    <glyph glyph-name="ellipsis" unicode="&#x2026;" horiz-adv-x="846" 
d="M778 0v141h-141v-141h141zM493 0v141h-141v-141h141zM210 0v141h-142v-141h142z" />
    <glyph glyph-name="perthousand" unicode="&#x2030;" horiz-adv-x="1211" 
d="M1158 131v99q0 34 -11.5 59.5t-31.5 42.5t-46.5 26t-55.5 9q-30 0 -56 -9t-46 -26t-31.5 -42.5t-11.5 -59.5v-99q0 -34 11.5 -59.5t31.5 -43t46 -26t56 -8.5q29 0 55.5 8.5t46.5 26t31.5 43t11.5 59.5zM796 131v99q0 34 -11.5 59.5t-31.5 42.5t-46.5 26t-55.5 9
q-30 0 -56 -9t-46 -26t-31.5 -42.5t-11.5 -59.5v-99q0 -34 11.5 -59.5t31.5 -43t46 -26t56 -8.5q29 0 55.5 8.5t46.5 26t31.5 43t11.5 59.5zM644 712h-102l-337 -712h102zM342 482v99q0 34 -11.5 59.5t-31.5 42.5t-46.5 26t-55.5 9q-30 0 -56 -9t-46 -26t-31.5 -42.5
t-11.5 -59.5v-99q0 -34 11.5 -59.5t31.5 -43t46 -26t56 -8.5q29 0 55.5 8.5t46.5 26t31.5 43t11.5 59.5zM1064 134q0 -29 -13.5 -42.5t-37.5 -13.5q-51 0 -51 57v91q0 57 51 57q24 0 37.5 -14t13.5 -43v-92zM702 135q0 -29 -13.5 -43t-37.5 -14q-51 0 -51 57v91q0 57 51 57
q24 0 37.5 -14t13.5 -43v-91zM248 486q0 -29 -13.5 -43t-37.5 -14t-37.5 14t-13.5 43v91q0 57 51 57q24 0 37.5 -14t13.5 -43v-91z" />
    <glyph glyph-name="guilsinglleft" unicode="&#x2039;" horiz-adv-x="350" 
d="M283 27v155l-94 93l94 93v155l-249 -248z" />
    <glyph glyph-name="guilsinglright" unicode="&#x203a;" horiz-adv-x="350" 
d="M316 275l-249 248v-155l95 -93l-95 -93v-155z" />
    <glyph glyph-name="trademark" unicode="&#x2122;" horiz-adv-x="924" 
d="M860 285v427h-95l-122 -228l-122 228h-95v-427h95v252l80 -157h84l80 157v-252h95zM360 627v85h-315v-85h110v-342h95v342h110z" />
    <glyph glyph-name="DC4" horiz-adv-x="328" 
d="M309 60v74h-39v80h-76v-80h-89l147 293h-86l-147 -293v-74h175v-60h76v60h39z" />
    <glyph glyph-name="notequal" horiz-adv-x="602" 
d="M552 116v122h-226l78 95h148v122h-55l55 67l-79 62l-103 -129h-320v-122h227l-78 -95h-149v-122h55l-55 -67l79 -62l103 129h320z" />
    <glyph glyph-name="infinity" horiz-adv-x="851" 
d="M796 284q0 39 -12.5 74t-36.5 60.5t-59.5 40.5t-81.5 15q-54 0 -98.5 -25.5t-82.5 -69.5q-38 44 -82.5 69.5t-97.5 25.5q-47 0 -82.5 -15t-59.5 -40.5t-36 -60.5t-12 -74t12 -73.5t36 -60t59.5 -40t82.5 -14.5q53 0 97.5 25t82.5 69q38 -44 82.5 -69t98.5 -25
q46 0 81.5 14.5t59.5 40t36.5 60t12.5 73.5zM670 281q0 -31 -19.5 -48t-45.5 -17q-27 0 -47.5 19t-43.5 46q23 27 43.5 46t47.5 19q26 0 45.5 -17t19.5 -48zM337 281q-23 -27 -44 -46t-48 -19q-26 0 -45 17t-19 48t19 48.5t45 17.5q27 0 48 -19.5t44 -46.5z" />
    <glyph glyph-name="lessequal" horiz-adv-x="1027" 
d="M884 1l-497 498l460 -2l-116 116h-546v-545l116 -116l-1 460l497 -498z" />
    <glyph glyph-name="greaterequal" horiz-adv-x="1027" 
d="M841 69v544h-545l-116 -116l460 2l-498 -498l87 -87l498 498l-2 -459z" />
    <glyph glyph-name="partialdiff" horiz-adv-x="555" 
d="M482 254v227q0 52 -14.5 95.5t-43 75t-71.5 49t-100 17.5q-60 0 -104 -14.5t-85 -53.5l81 -82q22 21 45.5 30.5t56.5 9.5q30 0 50 -10t32 -25t17 -32t5 -30v-27q-19 17 -41.5 23t-45.5 6q-56 0 -92 -18.5t-58 -41.5q-34 -36 -46 -82t-12 -117q0 -69 12 -115.5t46 -82.5
q23 -25 61 -43.5t94 -18.5t94.5 18.5t61.5 43.5q34 36 45.5 82.5t11.5 115.5zM352 254q0 -38 -4.5 -69.5t-22.5 -51.5q-22 -22 -56 -22t-56 22q-18 20 -22.5 51.5t-4.5 69.5t4.5 69t22.5 51q22 22 56 22t56 -22q18 -20 22.5 -51t4.5 -69z" />
    <glyph glyph-name="summation" horiz-adv-x="552" 
d="M515 -191v124h-315l146 295v129l-141 279h306v124h-468v-110l186 -355l-189 -376v-110h475z" />
    <glyph glyph-name="product" horiz-adv-x="685" 
d="M602 -191v951h-519v-951h139v828h241v-828h139z" />
    <glyph glyph-name="pi" horiz-adv-x="592" 
d="M515 0v521h-439v-521h130v399h180v-399h129z" />
    <glyph glyph-name="integral" horiz-adv-x="490" 
d="M433 615v110h-65q-86 0 -138.5 -47t-52.5 -135v-549q0 -36 -18.5 -53t-52.5 -17h-49v-110h65q86 0 138.5 46.5t52.5 134.5v549q0 36 18.5 53.5t52.5 17.5h49z" />
    <glyph glyph-name="Omega" horiz-adv-x="644" 
d="M585 0v123h-59q13 14 21.5 27.5t14.5 27.5q15 37 19 82.5t4 95.5q0 46 -1 86t-7.5 75t-21 65.5t-41.5 57.5q-38 38 -84.5 58t-107.5 20t-108 -20t-85 -58q-27 -27 -41.5 -57.5t-20.5 -65.5t-7 -75t-1 -86q0 -50 4 -95.5t19 -82.5q6 -14 14.5 -27.5t21.5 -27.5h-59v-123
h219v109q-35 16 -54 44q-7 10 -12 24.5t-8 37.5t-4.5 55.5t-1.5 78.5q0 51 1.5 85.5t5.5 57.5t10.5 37.5t16.5 25.5q15 17 38 28t52 11t51.5 -11t37.5 -28q10 -11 16.5 -25.5t10.5 -37.5t6 -57.5t2 -85.5q0 -46 -1.5 -78.5t-4.5 -55.5t-8 -37.5t-12 -24.5q-19 -28 -54 -44
v-109h219z" />
    <glyph glyph-name="radical" horiz-adv-x="596" 
d="M566 588v124h-195l-143 -464l-84 273h-141l172 -521h105l194 588h92z" />
    <glyph glyph-name="approxequal" horiz-adv-x="606" 
d="M569 393l-83 82q-28 -28 -47.5 -35.5t-39.5 -7.5q-22 0 -40.5 7t-40.5 18q-32 17 -59 25t-58 8q-23 0 -42.5 -4.5t-39 -15t-39.5 -27t-43 -39.5l82 -82q28 28 47 35t39 7q22 0 41 -6.5t41 -17.5q32 -17 59 -25t58 -8q23 0 43 4.5t39.5 15t39.5 27t43 39.5zM569 167
l-82 82q-28 -28 -47 -35t-39 -7q-22 0 -41 6.5t-41 17.5q-32 17 -58.5 25t-57.5 8q-23 0 -43 -4.5t-39.5 -15t-40 -27t-43.5 -39.5l83 -82q28 28 47.5 35.5t39.5 7.5q22 0 40.5 -7t40.5 -18q32 -17 59 -25t58 -8q23 0 42.5 4.5t39 15t39.5 27t43 39.5z" />
    <glyph glyph-name="Delta" horiz-adv-x="634" 
d="M631 0l-260 712h-108l-260 -712h628zM450 117h-264l134 385z" />
    <glyph glyph-name="nonbreakingspace" horiz-adv-x="232" 
 />
    <glyph glyph-name="lozenge" horiz-adv-x="636" 
d="M581 341l-263 366l-263 -366l263 -367zM435 341l-117 -165l-117 165l117 164z" />
    </font>
</defs>
</svg>
